<?xml version="1.0" encoding="us-ascii" standalone="no"?><svg xmlns="http://www.w3.org/2000/svg" xmlns:xlink="http://www.w3.org/1999/xlink" contentStyleType="text/css" height="941px" preserveAspectRatio="none" style="width:865px;height:941px;background:#FFFFFF;" version="1.1" viewBox="0 0 865 941" width="865px" zoomAndPan="magnify"><defs/><g><rect fill="none" height="929.7891" style="stroke:#181818;stroke-width:0.5;" width="674" x="178.5" y="6"/><text fill="#000000" font-family="sans-serif" font-size="13" font-weight="bold" lengthAdjust="spacing" textLength="21" x="505" y="18.0669">&#1041;&#1048;</text><rect fill="#FFFFFF" height="79.3984" style="stroke:#181818;stroke-width:1.0;" width="10" x="71.5" y="97.4297"/><rect fill="#FFFFFF" height="117.3984" style="stroke:#181818;stroke-width:1.0;" width="10" x="299.5" y="118.5625"/><rect fill="#FFFFFF" height="80.2656" style="stroke:#181818;stroke-width:1.0;" width="10" x="299.5" y="566.8906"/><rect fill="#FFFFFF" height="28" style="stroke:#181818;stroke-width:1.0;" width="10" x="304.5" y="619.1563"/><rect fill="#FFFFFF" height="74.2656" style="stroke:#181818;stroke-width:1.0;" width="10" x="299.5" y="757.2266"/><rect fill="#FFFFFF" height="176.3984" style="stroke:#181818;stroke-width:1.0;" width="10" x="563" y="205.9609"/><rect fill="#FFFFFF" height="28" style="stroke:#181818;stroke-width:1.0;" width="10" x="568" y="273.0938"/><rect fill="#FFFFFF" height="131.2656" style="stroke:#181818;stroke-width:1.0;" width="10" x="563" y="435.625"/><rect fill="#FFFFFF" height="28" style="stroke:#181818;stroke-width:1.0;" width="10" x="568" y="502.7578"/><rect fill="#FFFFFF" height="89.1328" style="stroke:#181818;stroke-width:1.0;" width="10" x="563" y="698.0938"/><rect fill="#FFFFFF" height="113.2656" style="stroke:#181818;stroke-width:1.0;" width="10" x="794" y="352.3594"/><rect fill="#FFFFFF" height="108.9375" style="stroke:#181818;stroke-width:1.0;" width="10" x="794" y="619.1563"/><rect fill="none" height="442.1328" style="stroke:#000000;stroke-width:1.5;" width="848.5" x="10" y="397.3594"/><line style="stroke:#181818;stroke-width:0.5;stroke-dasharray:5.0,5.0;" x1="76" x2="76" y1="87.4297" y2="856.4922"/><line style="stroke:#181818;stroke-width:0.5;stroke-dasharray:5.0,5.0;" x1="304.5" x2="304.5" y1="87.4297" y2="856.4922"/><line style="stroke:#181818;stroke-width:0.5;stroke-dasharray:5.0,5.0;" x1="567.5" x2="567.5" y1="87.4297" y2="856.4922"/><line style="stroke:#181818;stroke-width:0.5;stroke-dasharray:5.0,5.0;" x1="798.5" x2="798.5" y1="87.4297" y2="856.4922"/><text fill="#000000" font-family="sans-serif" font-size="14" lengthAdjust="spacing" textLength="107" x="20" y="84.1279">&#1055;&#1086;&#1083;&#1100;&#1079;&#1086;&#1074;&#1072;&#1090;&#1077;&#1083;&#1100;</text><ellipse cx="76.5" cy="19.6328" fill="#E2E2F0" rx="8" ry="8" style="stroke:#181818;stroke-width:0.5;"/><path d="M76.5,27.6328 L76.5,54.6328 M63.5,35.6328 L89.5,35.6328 M76.5,54.6328 L63.5,69.6328 M76.5,54.6328 L89.5,69.6328 " fill="none" style="stroke:#181818;stroke-width:0.5;"/><text fill="#000000" font-family="sans-serif" font-size="14" lengthAdjust="spacing" textLength="107" x="20" y="868.4873">&#1055;&#1086;&#1083;&#1100;&#1079;&#1086;&#1074;&#1072;&#1090;&#1077;&#1083;&#1100;</text><ellipse cx="76.5" cy="880.2891" fill="#E2E2F0" rx="8" ry="8" style="stroke:#181818;stroke-width:0.5;"/><path d="M76.5,888.2891 L76.5,915.2891 M63.5,896.2891 L89.5,896.2891 M76.5,915.2891 L63.5,930.2891 M76.5,915.2891 L89.5,930.2891 " fill="none" style="stroke:#181818;stroke-width:0.5;"/><rect fill="#E2E2F0" height="30.2969" rx="2.5" ry="2.5" style="stroke:#181818;stroke-width:0.5;" width="184" x="212.5" y="56.1328"/><text fill="#000000" font-family="sans-serif" font-size="14" lengthAdjust="spacing" textLength="170" x="219.5" y="76.1279">&#1054;&#1082;&#1085;&#1086; &#1072;&#1091;&#1090;&#1077;&#1085;&#1090;&#1080;&#1092;&#1080;&#1082;&#1072;&#1094;&#1080;&#1080;</text><rect fill="#E2E2F0" height="30.2969" rx="2.5" ry="2.5" style="stroke:#181818;stroke-width:0.5;" width="184" x="212.5" y="855.4922"/><text fill="#000000" font-family="sans-serif" font-size="14" lengthAdjust="spacing" textLength="170" x="219.5" y="875.4873">&#1054;&#1082;&#1085;&#1086; &#1072;&#1091;&#1090;&#1077;&#1085;&#1090;&#1080;&#1092;&#1080;&#1082;&#1072;&#1094;&#1080;&#1080;</text><rect fill="#E2E2F0" height="30.2969" rx="2.5" ry="2.5" style="stroke:#181818;stroke-width:0.5;" width="203" x="466.5" y="56.1328"/><text fill="#000000" font-family="sans-serif" font-size="14" lengthAdjust="spacing" textLength="189" x="473.5" y="76.1279">&#1052;&#1086;&#1076;&#1091;&#1083;&#1100; &#1072;&#1091;&#1090;&#1077;&#1085;&#1090;&#1080;&#1092;&#1080;&#1082;&#1072;&#1094;&#1080;&#1080;</text><rect fill="#E2E2F0" height="30.2969" rx="2.5" ry="2.5" style="stroke:#181818;stroke-width:0.5;" width="203" x="466.5" y="855.4922"/><text fill="#000000" font-family="sans-serif" font-size="14" lengthAdjust="spacing" textLength="189" x="473.5" y="875.4873">&#1052;&#1086;&#1076;&#1091;&#1083;&#1100; &#1072;&#1091;&#1090;&#1077;&#1085;&#1090;&#1080;&#1092;&#1080;&#1082;&#1072;&#1094;&#1080;&#1080;</text><text fill="#000000" font-family="sans-serif" font-size="14" lengthAdjust="spacing" textLength="93" x="749.5" y="84.1279">&#1041;&#1072;&#1079;&#1072; &#1076;&#1072;&#1085;&#1085;&#1099;&#1093;</text><path d="M781,35.1328 C781,25.1328 799,25.1328 799,25.1328 C799,25.1328 817,25.1328 817,35.1328 L817,61.1328 C817,71.1328 799,71.1328 799,71.1328 C799,71.1328 781,71.1328 781,61.1328 L781,35.1328 " fill="#E2E2F0" style="stroke:#181818;stroke-width:1.5;"/><path d="M781,35.1328 C781,45.1328 799,45.1328 799,45.1328 C799,45.1328 817,45.1328 817,35.1328 " fill="none" style="stroke:#181818;stroke-width:1.5;"/><text fill="#000000" font-family="sans-serif" font-size="14" lengthAdjust="spacing" textLength="93" x="749.5" y="868.4873">&#1041;&#1072;&#1079;&#1072; &#1076;&#1072;&#1085;&#1085;&#1099;&#1093;</text><path d="M781,881.7891 C781,871.7891 799,871.7891 799,871.7891 C799,871.7891 817,871.7891 817,881.7891 L817,907.7891 C817,917.7891 799,917.7891 799,917.7891 C799,917.7891 781,917.7891 781,907.7891 L781,881.7891 " fill="#E2E2F0" style="stroke:#181818;stroke-width:1.5;"/><path d="M781,881.7891 C781,891.7891 799,891.7891 799,891.7891 C799,891.7891 817,891.7891 817,881.7891 " fill="none" style="stroke:#181818;stroke-width:1.5;"/><rect fill="#FFFFFF" height="79.3984" style="stroke:#181818;stroke-width:1.0;" width="10" x="71.5" y="97.4297"/><rect fill="#FFFFFF" height="117.3984" style="stroke:#181818;stroke-width:1.0;" width="10" x="299.5" y="118.5625"/><rect fill="#FFFFFF" height="80.2656" style="stroke:#181818;stroke-width:1.0;" width="10" x="299.5" y="566.8906"/><rect fill="#FFFFFF" height="28" style="stroke:#181818;stroke-width:1.0;" width="10" x="304.5" y="619.1563"/><rect fill="#FFFFFF" height="74.2656" style="stroke:#181818;stroke-width:1.0;" width="10" x="299.5" y="757.2266"/><rect fill="#FFFFFF" height="176.3984" style="stroke:#181818;stroke-width:1.0;" width="10" x="563" y="205.9609"/><rect fill="#FFFFFF" height="28" style="stroke:#181818;stroke-width:1.0;" width="10" x="568" y="273.0938"/><rect fill="#FFFFFF" height="131.2656" style="stroke:#181818;stroke-width:1.0;" width="10" x="563" y="435.625"/><rect fill="#FFFFFF" height="28" style="stroke:#181818;stroke-width:1.0;" width="10" x="568" y="502.7578"/><rect fill="#FFFFFF" height="89.1328" style="stroke:#181818;stroke-width:1.0;" width="10" x="563" y="698.0938"/><rect fill="#FFFFFF" height="113.2656" style="stroke:#181818;stroke-width:1.0;" width="10" x="794" y="352.3594"/><rect fill="#FFFFFF" height="108.9375" style="stroke:#181818;stroke-width:1.0;" width="10" x="794" y="619.1563"/><line style="stroke:#181818;stroke-width:1.0;" x1="297.5" x2="287.5" y1="118.5625" y2="114.5625"/><line style="stroke:#181818;stroke-width:1.0;" x1="297.5" x2="287.5" y1="118.5625" y2="122.5625"/><line style="stroke:#181818;stroke-width:1.0;" x1="81.5" x2="298.5" y1="118.5625" y2="118.5625"/><text fill="#000000" font-family="sans-serif" font-size="13" font-weight="bold" lengthAdjust="spacing" textLength="21" x="134" y="113.4966">[1]</text><text fill="#000000" font-family="sans-serif" font-size="13" lengthAdjust="spacing" textLength="44" x="159" y="113.4966">&#1074;&#1074;&#1077;&#1089;&#1090;&#1080;</text><text fill="#000000" font-family="sans-serif" font-size="13" lengthAdjust="spacing" textLength="4" x="203" y="113.4966">&#160;</text><text fill="#000000" font-family="sans-serif" font-size="13" lengthAdjust="spacing" textLength="40" x="207" y="113.4966">&#1083;&#1086;&#1075;&#1080;&#1085;</text><line style="stroke:#181818;stroke-width:1.0;" x1="297.5" x2="287.5" y1="147.6953" y2="143.6953"/><line style="stroke:#181818;stroke-width:1.0;" x1="297.5" x2="287.5" y1="147.6953" y2="151.6953"/><line style="stroke:#181818;stroke-width:1.0;" x1="81.5" x2="298.5" y1="147.6953" y2="147.6953"/><text fill="#000000" font-family="sans-serif" font-size="13" font-weight="bold" lengthAdjust="spacing" textLength="21" x="130" y="142.6294">[2]</text><text fill="#000000" font-family="sans-serif" font-size="13" lengthAdjust="spacing" textLength="44" x="155" y="142.6294">&#1074;&#1074;&#1077;&#1089;&#1090;&#1080;</text><text fill="#000000" font-family="sans-serif" font-size="13" lengthAdjust="spacing" textLength="4" x="199" y="142.6294">&#160;</text><text fill="#000000" font-family="sans-serif" font-size="13" lengthAdjust="spacing" textLength="48" x="203" y="142.6294">&#1087;&#1072;&#1088;&#1086;&#1083;&#1100;</text><polygon fill="#181818" points="287.5,172.8281,297.5,176.8281,287.5,180.8281,291.5,176.8281" style="stroke:#181818;stroke-width:1.0;"/><line style="stroke:#181818;stroke-width:1.0;" x1="76.5" x2="293.5" y1="176.8281" y2="176.8281"/><text fill="#000000" font-family="sans-serif" font-size="13" font-weight="bold" lengthAdjust="spacing" textLength="20" x="103" y="171.7622">[3]</text><text fill="#000000" font-family="sans-serif" font-size="13" lengthAdjust="spacing" textLength="49" x="127" y="171.7622">&#1085;&#1072;&#1078;&#1072;&#1090;&#1100;</text><text fill="#000000" font-family="sans-serif" font-size="13" lengthAdjust="spacing" textLength="4" x="176" y="171.7622">&#160;</text><text fill="#000000" font-family="sans-serif" font-size="13" lengthAdjust="spacing" textLength="48" x="180" y="171.7622">&#1082;&#1085;&#1086;&#1087;&#1082;&#1091;</text><text fill="#000000" font-family="sans-serif" font-size="13" lengthAdjust="spacing" textLength="4" x="228" y="171.7622">&#160;</text><text fill="#000000" font-family="sans-serif" font-size="13" lengthAdjust="spacing" textLength="41" x="232" y="171.7622">&#1074;&#1093;&#1086;&#1076;&#1072;</text><polygon fill="#181818" points="551,201.9609,561,205.9609,551,209.9609,555,205.9609" style="stroke:#181818;stroke-width:1.0;"/><line style="stroke:#181818;stroke-width:1.0;" x1="309.5" x2="557" y1="205.9609" y2="205.9609"/><text fill="#000000" font-family="sans-serif" font-size="13" font-weight="bold" lengthAdjust="spacing" textLength="21" x="335.75" y="200.895">[4]</text><text fill="#000000" font-family="sans-serif" font-size="13" lengthAdjust="spacing" textLength="68" x="360.75" y="200.895">&#1086;&#1090;&#1087;&#1088;&#1072;&#1074;&#1080;&#1090;&#1100;</text><text fill="#000000" font-family="sans-serif" font-size="13" lengthAdjust="spacing" textLength="4" x="428.75" y="200.895">&#160;</text><text fill="#000000" font-family="sans-serif" font-size="13" lengthAdjust="spacing" textLength="40" x="432.75" y="200.895">&#1083;&#1086;&#1075;&#1080;&#1085;</text><text fill="#000000" font-family="sans-serif" font-size="13" lengthAdjust="spacing" textLength="4" x="472.75" y="200.895">&#160;</text><text fill="#000000" font-family="sans-serif" font-size="13" lengthAdjust="spacing" textLength="8" x="476.75" y="200.895">&#1080;</text><text fill="#000000" font-family="sans-serif" font-size="13" lengthAdjust="spacing" textLength="4" x="484.75" y="200.895">&#160;</text><text fill="#000000" font-family="sans-serif" font-size="13" lengthAdjust="spacing" textLength="48" x="488.75" y="200.895">&#1087;&#1072;&#1088;&#1086;&#1083;&#1100;</text><line style="stroke:#181818;stroke-width:1.0;" x1="578" x2="620" y1="265.0938" y2="265.0938"/><line style="stroke:#181818;stroke-width:1.0;" x1="620" x2="620" y1="265.0938" y2="278.0938"/><line style="stroke:#181818;stroke-width:1.0;" x1="579" x2="620" y1="278.0938" y2="278.0938"/><polygon fill="#181818" points="589,274.0938,579,278.0938,589,282.0938,585,278.0938" style="stroke:#181818;stroke-width:1.0;"/><text fill="#000000" font-family="sans-serif" font-size="13" font-weight="bold" lengthAdjust="spacing" textLength="21" x="585" y="260.0278">[5]</text><text fill="#000000" font-family="sans-serif" font-size="13" lengthAdjust="spacing" textLength="99" x="610" y="260.0278">&#1089;&#1075;&#1077;&#1085;&#1077;&#1088;&#1080;&#1088;&#1086;&#1074;&#1072;&#1090;&#1100;</text><text fill="#000000" font-family="sans-serif" font-size="13" lengthAdjust="spacing" textLength="4" x="709" y="260.0278">&#160;</text><text fill="#000000" font-family="sans-serif" font-size="13" lengthAdjust="spacing" textLength="27" x="713" y="260.0278">&#1093;&#1077;&#1096;</text><text fill="#000000" font-family="sans-serif" font-size="13" lengthAdjust="spacing" textLength="4" x="740" y="260.0278">&#160;</text><text fill="#000000" font-family="sans-serif" font-size="13" lengthAdjust="spacing" textLength="48" x="744" y="260.0278">&#1087;&#1072;&#1088;&#1086;&#1083;&#1103;</text><polygon fill="#181818" points="782,348.3594,792,352.3594,782,356.3594,786,352.3594" style="stroke:#181818;stroke-width:1.0;"/><line style="stroke:#181818;stroke-width:1.0;" x1="573" x2="788" y1="352.3594" y2="352.3594"/><text fill="#000000" font-family="sans-serif" font-size="13" font-weight="bold" lengthAdjust="spacing" textLength="21" x="606.5" y="339.7271">[6]</text><text fill="#000000" font-family="sans-serif" font-size="13" lengthAdjust="spacing" textLength="69" x="631.5" y="332.1606">&#1087;&#1088;&#1086;&#1074;&#1077;&#1088;&#1080;&#1090;&#1100;</text><text fill="#000000" font-family="sans-serif" font-size="13" lengthAdjust="spacing" textLength="4" x="700.5" y="332.1606">&#160;</text><text fill="#000000" font-family="sans-serif" font-size="13" lengthAdjust="spacing" textLength="56" x="704.5" y="332.1606">&#1085;&#1072;&#1083;&#1080;&#1095;&#1080;&#1077;</text><text fill="#000000" font-family="sans-serif" font-size="13" lengthAdjust="spacing" textLength="93" x="649.5" y="347.2935">&#1087;&#1086;&#1083;&#1100;&#1079;&#1086;&#1074;&#1072;&#1090;&#1077;&#1083;&#1103;</text><path d="M10,397.3594 L76,397.3594 L76,404.4922 L66,414.4922 L10,414.4922 L10,397.3594 " fill="#EEEEEE" style="stroke:#000000;stroke-width:1.5;"/><rect fill="none" height="442.1328" style="stroke:#000000;stroke-width:1.5;" width="848.5" x="10" y="397.3594"/><text fill="#000000" font-family="sans-serif" font-size="13" font-weight="bold" lengthAdjust="spacing" textLength="21" x="25" y="410.4263">alt</text><text fill="#000000" font-family="sans-serif" font-size="11" font-weight="bold" lengthAdjust="spacing" textLength="194" x="91" y="409.5698">[&#1059;&#1089;&#1087;&#1077;&#1096;&#1085;&#1072;&#1103; &#1072;&#1091;&#1090;&#1077;&#1085;&#1090;&#1080;&#1092;&#1080;&#1082;&#1072;&#1094;&#1080;&#1103;]</text><polygon fill="#181818" points="584,431.625,574,435.625,584,439.625,580,435.625" style="stroke:#181818;stroke-width:1.0;"/><line style="stroke:#181818;stroke-width:1.0;stroke-dasharray:2.0,2.0;" x1="578" x2="793" y1="435.625" y2="435.625"/><text fill="#000000" font-family="sans-serif" font-size="13" font-weight="bold" lengthAdjust="spacing" textLength="21" x="597.5" y="430.5591">[7]</text><text fill="#000000" font-family="sans-serif" font-size="13" lengthAdjust="spacing" textLength="93" x="622.5" y="430.5591">&#1087;&#1086;&#1083;&#1100;&#1079;&#1086;&#1074;&#1072;&#1090;&#1077;&#1083;&#1100;</text><text fill="#000000" font-family="sans-serif" font-size="13" lengthAdjust="spacing" textLength="4" x="715.5" y="430.5591">&#160;</text><text fill="#000000" font-family="sans-serif" font-size="13" lengthAdjust="spacing" textLength="50" x="719.5" y="430.5591">&#1085;&#1072;&#1081;&#1076;&#1077;&#1085;</text><line style="stroke:#181818;stroke-width:1.0;" x1="578" x2="620" y1="494.7578" y2="494.7578"/><line style="stroke:#181818;stroke-width:1.0;" x1="620" x2="620" y1="494.7578" y2="507.7578"/><line style="stroke:#181818;stroke-width:1.0;" x1="579" x2="620" y1="507.7578" y2="507.7578"/><polygon fill="#181818" points="589,503.7578,579,507.7578,589,511.7578,585,507.7578" style="stroke:#181818;stroke-width:1.0;"/><text fill="#000000" font-family="sans-serif" font-size="13" font-weight="bold" lengthAdjust="spacing" textLength="21" x="585" y="489.6919">[8]</text><text fill="#000000" font-family="sans-serif" font-size="13" lengthAdjust="spacing" textLength="99" x="610" y="489.6919">&#1089;&#1075;&#1077;&#1085;&#1077;&#1088;&#1080;&#1088;&#1086;&#1074;&#1072;&#1090;&#1100;</text><text fill="#000000" font-family="sans-serif" font-size="13" lengthAdjust="spacing" textLength="4" x="709" y="489.6919">&#160;</text><text fill="#000000" font-family="sans-serif" font-size="13" lengthAdjust="spacing" textLength="39" x="713" y="489.6919">&#1090;&#1086;&#1082;&#1077;&#1085;</text><polygon fill="#181818" points="320.5,562.8906,310.5,566.8906,320.5,570.8906,316.5,566.8906" style="stroke:#181818;stroke-width:1.0;"/><line style="stroke:#181818;stroke-width:1.0;stroke-dasharray:2.0,2.0;" x1="314.5" x2="567" y1="566.8906" y2="566.8906"/><text fill="#000000" font-family="sans-serif" font-size="13" font-weight="bold" lengthAdjust="spacing" textLength="21" x="370.75" y="561.8247">[9]</text><text fill="#000000" font-family="sans-serif" font-size="13" lengthAdjust="spacing" textLength="68" x="395.75" y="561.8247">&#1086;&#1090;&#1087;&#1088;&#1072;&#1074;&#1080;&#1090;&#1100;</text><text fill="#000000" font-family="sans-serif" font-size="13" lengthAdjust="spacing" textLength="4" x="463.75" y="561.8247">&#160;</text><text fill="#000000" font-family="sans-serif" font-size="13" lengthAdjust="spacing" textLength="39" x="467.75" y="561.8247">&#1090;&#1086;&#1082;&#1077;&#1085;</text><line style="stroke:#181818;stroke-width:1.0;stroke-dasharray:2.0,2.0;" x1="314.5" x2="356.5" y1="611.1563" y2="611.1563"/><line style="stroke:#181818;stroke-width:1.0;stroke-dasharray:2.0,2.0;" x1="356.5" x2="356.5" y1="611.1563" y2="624.1563"/><line style="stroke:#181818;stroke-width:1.0;stroke-dasharray:2.0,2.0;" x1="315.5" x2="356.5" y1="624.1563" y2="624.1563"/><polygon fill="#181818" points="325.5,620.1563,315.5,624.1563,325.5,628.1563,321.5,624.1563" style="stroke:#181818;stroke-width:1.0;"/><text fill="#000000" font-family="sans-serif" font-size="13" font-weight="bold" lengthAdjust="spacing" textLength="31" x="321.5" y="598.5239">[10]</text><text fill="#000000" font-family="sans-serif" font-size="13" lengthAdjust="spacing" textLength="101" x="356.5" y="590.9575">&#1087;&#1077;&#1088;&#1077;&#1085;&#1072;&#1087;&#1088;&#1072;&#1074;&#1080;&#1090;&#1100;</text><text fill="#000000" font-family="sans-serif" font-size="13" lengthAdjust="spacing" textLength="4" x="457.5" y="590.9575">&#160;</text><text fill="#000000" font-family="sans-serif" font-size="13" lengthAdjust="spacing" textLength="16" x="461.5" y="590.9575">&#1085;&#1072;</text><text fill="#000000" font-family="sans-serif" font-size="13" lengthAdjust="spacing" textLength="4" x="477.5" y="590.9575">&#160;</text><text fill="#000000" font-family="sans-serif" font-size="13" lengthAdjust="spacing" textLength="60" x="481.5" y="590.9575">&#1094;&#1077;&#1083;&#1077;&#1074;&#1091;&#1102;</text><text fill="#000000" font-family="sans-serif" font-size="13" lengthAdjust="spacing" textLength="63" x="417.5" y="606.0903">&#1089;&#1090;&#1088;&#1072;&#1085;&#1080;&#1094;&#1091;</text><line style="stroke:#000000;stroke-width:1.0;stroke-dasharray:2.0,2.0;" x1="10" x2="858.5" y1="663.1563" y2="663.1563"/><text fill="#000000" font-family="sans-serif" font-size="11" font-weight="bold" lengthAdjust="spacing" textLength="215" x="15" y="673.3667">[&#1040;&#1091;&#1090;&#1077;&#1085;&#1090;&#1080;&#1092;&#1080;&#1082;&#1072;&#1094;&#1080;&#1103; &#1085;&#1077; &#1087;&#1088;&#1086;&#1081;&#1076;&#1077;&#1085;&#1072;]</text><polygon fill="#181818" points="584,694.0938,574,698.0938,584,702.0938,580,698.0938" style="stroke:#181818;stroke-width:1.0;"/><line style="stroke:#181818;stroke-width:1.0;stroke-dasharray:2.0,2.0;" x1="578" x2="793" y1="698.0938" y2="698.0938"/><text fill="#000000" font-family="sans-serif" font-size="13" font-weight="bold" lengthAdjust="spacing" textLength="30" x="583" y="693.0278">[11]</text><text fill="#000000" font-family="sans-serif" font-size="13" lengthAdjust="spacing" textLength="93" x="617" y="693.0278">&#1087;&#1086;&#1083;&#1100;&#1079;&#1086;&#1074;&#1072;&#1090;&#1077;&#1083;&#1100;</text><text fill="#000000" font-family="sans-serif" font-size="13" lengthAdjust="spacing" textLength="4" x="710" y="693.0278">&#160;</text><text fill="#000000" font-family="sans-serif" font-size="13" lengthAdjust="spacing" textLength="16" x="714" y="693.0278">&#1085;&#1077;</text><text fill="#000000" font-family="sans-serif" font-size="13" lengthAdjust="spacing" textLength="4" x="730" y="693.0278">&#160;</text><text fill="#000000" font-family="sans-serif" font-size="13" lengthAdjust="spacing" textLength="50" x="734" y="693.0278">&#1085;&#1072;&#1081;&#1076;&#1077;&#1085;</text><polygon fill="#181818" points="320.5,753.2266,310.5,757.2266,320.5,761.2266,316.5,757.2266" style="stroke:#181818;stroke-width:1.0;"/><line style="stroke:#181818;stroke-width:1.0;stroke-dasharray:2.0,2.0;" x1="314.5" x2="562" y1="757.2266" y2="757.2266"/><text fill="#000000" font-family="sans-serif" font-size="13" font-weight="bold" lengthAdjust="spacing" textLength="30" x="344.25" y="752.1606">[12]</text><text fill="#000000" font-family="sans-serif" font-size="13" lengthAdjust="spacing" textLength="75" x="378.25" y="752.1606">&#1089;&#1086;&#1086;&#1073;&#1097;&#1077;&#1085;&#1080;&#1077;</text><text fill="#000000" font-family="sans-serif" font-size="13" lengthAdjust="spacing" textLength="4" x="453.25" y="752.1606">&#160;</text><text fill="#000000" font-family="sans-serif" font-size="13" lengthAdjust="spacing" textLength="16" x="457.25" y="752.1606">&#1086;&#1073;</text><text fill="#000000" font-family="sans-serif" font-size="13" lengthAdjust="spacing" textLength="4" x="473.25" y="752.1606">&#160;</text><text fill="#000000" font-family="sans-serif" font-size="13" lengthAdjust="spacing" textLength="51" x="477.25" y="752.1606">&#1086;&#1096;&#1080;&#1073;&#1082;&#1077;</text><polygon fill="#181818" points="87.5,827.4922,77.5,831.4922,87.5,835.4922,83.5,831.4922" style="stroke:#181818;stroke-width:1.0;"/><line style="stroke:#181818;stroke-width:1.0;stroke-dasharray:2.0,2.0;" x1="81.5" x2="303.5" y1="831.4922" y2="831.4922"/><text fill="#000000" font-family="sans-serif" font-size="13" font-weight="bold" lengthAdjust="spacing" textLength="29" x="91" y="818.8599">[13]</text><text fill="#000000" font-family="sans-serif" font-size="13" lengthAdjust="spacing" textLength="54" x="124" y="811.2935">&#1074;&#1099;&#1074;&#1077;&#1089;&#1090;&#1080;</text><text fill="#000000" font-family="sans-serif" font-size="13" lengthAdjust="spacing" textLength="4" x="178" y="811.2935">&#160;</text><text fill="#000000" font-family="sans-serif" font-size="13" lengthAdjust="spacing" textLength="88" x="182" y="811.2935">&#1080;&#1085;&#1092;&#1086;&#1088;&#1084;&#1072;&#1094;&#1080;&#1102;</text><text fill="#000000" font-family="sans-serif" font-size="13" lengthAdjust="spacing" textLength="4" x="270" y="811.2935">&#160;</text><text fill="#000000" font-family="sans-serif" font-size="13" lengthAdjust="spacing" textLength="16" x="274" y="811.2935">&#1086;&#1073;</text><text fill="#000000" font-family="sans-serif" font-size="13" lengthAdjust="spacing" textLength="51" x="181.5" y="826.4263">&#1086;&#1096;&#1080;&#1073;&#1082;&#1077;</text><!--SRC=[ZPF1Rjf048RlVeeHFUI0a51xYogaFa2aI3rMLRN62x5AR8gD5BMgb8GcJPKgQMyzLCqXB-3GEALGu1LstwZ_x1gmJMX3HCp2p3V__3ExjUTxabfX6BlXWHEzzeEkw8bzUkSGNZlYO4T6aMZBv_vRIO_hTUTzBYYIR_eoQ4eRl2jwiT_qkoA8TuNd-K6RdjGjnZAUTVnsG4qPnB87ZkZ7OT3VTsMFAa_TnelwouhZY6OSugokr4nDz6Vr2y-XIlInIlbS8H5HFq8-v2Big_fMeKTnJmGH985iwdLNIX3pGutLLCq8b87XJF5_f3-e4Nv8z2cU8yE5eBrNhNi8to7YLWzOm0CfaQ5u8XQkYAGHcg2NXDGjFaoHVAvFJBZdcj2jOiKhVGZW17Nlk1G-fnRUxJeoy8Y7vR0FrQfvKAtHoFHNgzi4ouOgrKSiaGpc9n3JScWvS8v63gtnYz1Lv1J2xtWIR89n5F5ZFG13dx11AZ59jPhZsAHbUcGqpL1a3dw2aYEBMIgZSdbB0Ci2YYXzX2os9MMRJCumKmOfgJxBioupH87bkKRIFCkr72E9svpWy94zPyvzUvXdTc9Irr0qvyAShY__iIH8vN7RzN2fjknhUrEjJDDl60oUILmuaL6WOlNjmvqwnc5SOfPG-VclZ- -_X5OcSR4EjSAEpeser7HNsWjyHN0BxUCzX9SNn3jgWd0PzAaUvC25aZZ83gwS-h9v15mWNKm_CnRRQzrSsfeRJgPtutZIzHcjZQNGFEOomz-D_hIutiH7TlaCfnksTPEf1iKtZQ-lFizVODmaT3f3Nt-oNYysS4kE1TvV]--></g></svg>