<?xml version="1.0" encoding="us-ascii" standalone="no"?><svg xmlns="http://www.w3.org/2000/svg" xmlns:xlink="http://www.w3.org/1999/xlink" contentStyleType="text/css" height="587px" preserveAspectRatio="none" style="width:1091px;height:587px;background:#FFFFFF;" version="1.1" viewBox="0 0 1091 587" width="1091px" zoomAndPan="magnify"><defs/><g><!--class ????????????--><g id="elem_&#1055;&#1086;&#1083;&#1100;&#1079;&#1086;&#1074;&#1072;&#1090;&#1077;&#1083;&#1100;"><rect codeLine="3" fill="#F1F1F1" height="80.5938" id="&#1055;&#1086;&#1083;&#1100;&#1079;&#1086;&#1074;&#1072;&#1090;&#1077;&#1083;&#1100;" rx="2.5" ry="2.5" style="stroke:#181818;stroke-width:0.5;" width="136" x="23.5" y="212.78"/><ellipse cx="38.5" cy="228.78" fill="#ADD1B2" rx="11" ry="11" style="stroke:#181818;stroke-width:1.0;"/><path d="M42.6094,234.78 L34.8906,234.78 L34.8906,222.3894 L42.6094,222.3894 L42.6094,224.5456 L37.3438,224.5456 L37.3438,227.2175 L42.1094,227.2175 L42.1094,229.3737 L37.3438,229.3737 L37.3438,232.6237 L42.6094,232.6237 L42.6094,234.78 Z " fill="#000000"/><text fill="#000000" font-family="sans-serif" font-size="14" lengthAdjust="spacing" textLength="104" x="52.5" y="233.6267">&#1055;&#1086;&#1083;&#1100;&#1079;&#1086;&#1074;&#1072;&#1090;&#1077;&#1083;&#1100;</text><line style="stroke:#181818;stroke-width:0.5;" x1="24.5" x2="158.5" y1="244.78" y2="244.78"/><ellipse cx="34.5" cy="258.4284" fill="#000000" rx="3" ry="3" style="stroke:#000000;stroke-width:1.0;"/><text fill="#000000" font-family="sans-serif" font-size="14" lengthAdjust="spacing" textLength="28" x="43.5" y="261.7751">&#1048;&#1084;&#1103;</text><ellipse cx="34.5" cy="274.7253" fill="#000000" rx="3" ry="3" style="stroke:#000000;stroke-width:1.0;"/><text fill="#000000" font-family="sans-serif" font-size="14" lengthAdjust="spacing" textLength="31" x="43.5" y="278.072">&#1040;&#1044;&#1041;</text><line style="stroke:#181818;stroke-width:0.5;" x1="24.5" x2="158.5" y1="285.3738" y2="285.3738"/></g><!--class ???--><g id="elem_&#1040;&#1044;&#1041;"><rect codeLine="8" fill="#F1F1F1" height="80.5938" id="&#1040;&#1044;&#1041;" rx="2.5" ry="2.5" style="stroke:#181818;stroke-width:0.5;" width="170" x="238.5" y="434.86"/><ellipse cx="303.75" cy="450.86" fill="#ADD1B2" rx="11" ry="11" style="stroke:#181818;stroke-width:1.0;"/><path d="M307.8594,456.86 L300.1406,456.86 L300.1406,444.4694 L307.8594,444.4694 L307.8594,446.6256 L302.5938,446.6256 L302.5938,449.2975 L307.3594,449.2975 L307.3594,451.4538 L302.5938,451.4538 L302.5938,454.7038 L307.8594,454.7038 L307.8594,456.86 Z " fill="#000000"/><text fill="#000000" font-family="sans-serif" font-size="14" lengthAdjust="spacing" textLength="31" x="324.25" y="455.7067">&#1040;&#1044;&#1041;</text><line style="stroke:#181818;stroke-width:0.5;" x1="239.5" x2="407.5" y1="466.86" y2="466.86"/><ellipse cx="249.5" cy="480.5084" fill="#000000" rx="3" ry="3" style="stroke:#000000;stroke-width:1.0;"/><text fill="#000000" font-family="sans-serif" font-size="14" lengthAdjust="spacing" textLength="107" x="258.5" y="483.8551">&#1053;&#1072;&#1080;&#1084;&#1077;&#1085;&#1086;&#1074;&#1072;&#1085;&#1080;&#1077;</text><ellipse cx="249.5" cy="496.8053" fill="#000000" rx="3" ry="3" style="stroke:#000000;stroke-width:1.0;"/><text fill="#000000" font-family="sans-serif" font-size="14" lengthAdjust="spacing" textLength="144" x="258.5" y="500.152">&#1057;&#1087;&#1080;&#1089;&#1086;&#1082; &#1062;&#1040;&#1056; &#1085;&#1077; &#1052;&#1042;&#1055;</text><line style="stroke:#181818;stroke-width:0.5;" x1="239.5" x2="407.5" y1="507.4538" y2="507.4538"/></g><!--class ???_????????????--><g id="elem_&#1058;&#1080;&#1087;_&#1087;&#1086;&#1083;&#1100;&#1079;&#1086;&#1074;&#1072;&#1090;&#1077;&#1083;&#1103;"><rect codeLine="13" fill="#F1F1F1" height="80.5938" id="&#1058;&#1080;&#1087;_&#1087;&#1086;&#1083;&#1100;&#1079;&#1086;&#1074;&#1072;&#1090;&#1077;&#1083;&#1103;" rx="2.5" ry="2.5" style="stroke:#181818;stroke-width:0.5;" width="169" x="7" y="434.86"/><ellipse cx="22" cy="450.86" fill="#EB937F" rx="11" ry="11" style="stroke:#181818;stroke-width:1.0;"/><path d="M26.1094,456.86 L18.3906,456.86 L18.3906,444.4694 L26.1094,444.4694 L26.1094,446.6256 L20.8438,446.6256 L20.8438,449.2975 L25.6094,449.2975 L25.6094,451.4538 L20.8438,451.4538 L20.8438,454.7038 L26.1094,454.7038 L26.1094,456.86 Z " fill="#000000"/><text fill="#000000" font-family="sans-serif" font-size="14" lengthAdjust="spacing" textLength="137" x="36" y="455.7067">&#1058;&#1080;&#1087;_&#1087;&#1086;&#1083;&#1100;&#1079;&#1086;&#1074;&#1072;&#1090;&#1077;&#1083;&#1103;</text><line style="stroke:#181818;stroke-width:0.5;" x1="8" x2="175" y1="466.86" y2="466.86"/><ellipse cx="18" cy="480.5084" fill="#000000" rx="3" ry="3" style="stroke:#000000;stroke-width:1.0;"/><text fill="#000000" font-family="sans-serif" font-size="14" lengthAdjust="spacing" textLength="117" x="27" y="483.8551">&#1040;&#1076;&#1084;&#1080;&#1085;&#1080;&#1089;&#1090;&#1088;&#1072;&#1090;&#1086;&#1088;</text><ellipse cx="18" cy="496.8053" fill="#000000" rx="3" ry="3" style="stroke:#000000;stroke-width:1.0;"/><text fill="#000000" font-family="sans-serif" font-size="14" lengthAdjust="spacing" textLength="104" x="27" y="500.152">&#1055;&#1086;&#1083;&#1100;&#1079;&#1086;&#1074;&#1072;&#1090;&#1077;&#1083;&#1100;</text><line style="stroke:#181818;stroke-width:0.5;" x1="8" x2="175" y1="507.4538" y2="507.4538"/></g><!--class ??????????--><g id="elem_&#1050;&#1086;&#1085;&#1090;&#1088;&#1072;&#1075;&#1077;&#1085;&#1090;"><rect codeLine="18" fill="#F1F1F1" height="129.4844" id="&#1050;&#1086;&#1085;&#1090;&#1088;&#1072;&#1075;&#1077;&#1085;&#1090;" rx="2.5" ry="2.5" style="stroke:#181818;stroke-width:0.5;" width="176" x="247.5" y="7"/><ellipse cx="287.7" cy="23" fill="#ADD1B2" rx="11" ry="11" style="stroke:#181818;stroke-width:1.0;"/><path d="M291.8094,29 L284.0906,29 L284.0906,16.6094 L291.8094,16.6094 L291.8094,18.7656 L286.5438,18.7656 L286.5438,21.4375 L291.3094,21.4375 L291.3094,23.5938 L286.5438,23.5938 L286.5438,26.8438 L291.8094,26.8438 L291.8094,29 Z " fill="#000000"/><text fill="#000000" font-family="sans-serif" font-size="14" lengthAdjust="spacing" textLength="88" x="307.3" y="27.8467">&#1050;&#1086;&#1085;&#1090;&#1088;&#1072;&#1075;&#1077;&#1085;&#1090;</text><line style="stroke:#181818;stroke-width:0.5;" x1="248.5" x2="422.5" y1="39" y2="39"/><ellipse cx="258.5" cy="52.6484" fill="#000000" rx="3" ry="3" style="stroke:#000000;stroke-width:1.0;"/><text fill="#000000" font-family="sans-serif" font-size="14" lengthAdjust="spacing" textLength="28" x="267.5" y="55.9951">&#1048;&#1084;&#1103;</text><ellipse cx="258.5" cy="68.9453" fill="#000000" rx="3" ry="3" style="stroke:#000000;stroke-width:1.0;"/><text fill="#000000" font-family="sans-serif" font-size="14" lengthAdjust="spacing" textLength="30" x="267.5" y="72.292">&#1048;&#1053;&#1053;</text><ellipse cx="258.5" cy="85.2422" fill="#000000" rx="3" ry="3" style="stroke:#000000;stroke-width:1.0;"/><text fill="#000000" font-family="sans-serif" font-size="14" lengthAdjust="spacing" textLength="30" x="267.5" y="88.5889">&#1050;&#1055;&#1055;</text><ellipse cx="258.5" cy="101.5391" fill="#000000" rx="3" ry="3" style="stroke:#000000;stroke-width:1.0;"/><text fill="#000000" font-family="sans-serif" font-size="14" lengthAdjust="spacing" textLength="38" x="267.5" y="104.8857">&#1054;&#1043;&#1056;&#1053;</text><ellipse cx="258.5" cy="117.8359" fill="#000000" rx="3" ry="3" style="stroke:#000000;stroke-width:1.0;"/><text fill="#000000" font-family="sans-serif" font-size="14" lengthAdjust="spacing" textLength="150" x="267.5" y="121.1826">&#1070;&#1088;&#1080;&#1076;&#1080;&#1095;&#1077;&#1089;&#1082;&#1080;&#1081; &#1072;&#1076;&#1088;&#1077;&#1089;</text><line style="stroke:#181818;stroke-width:0.5;" x1="248.5" x2="422.5" y1="128.4844" y2="128.4844"/></g><!--class ???_???????????--><g id="elem_&#1058;&#1080;&#1087;_&#1082;&#1086;&#1085;&#1090;&#1088;&#1072;&#1075;&#1077;&#1085;&#1090;&#1072;"><rect codeLine="26" fill="#F1F1F1" height="96.8906" id="&#1058;&#1080;&#1087;_&#1082;&#1086;&#1085;&#1090;&#1088;&#1072;&#1075;&#1077;&#1085;&#1090;&#1072;" rx="2.5" ry="2.5" style="stroke:#181818;stroke-width:0.5;" width="221" x="194" y="204.63"/><ellipse cx="236.45" cy="220.63" fill="#EB937F" rx="11" ry="11" style="stroke:#181818;stroke-width:1.0;"/><path d="M240.5594,226.63 L232.8406,226.63 L232.8406,214.2394 L240.5594,214.2394 L240.5594,216.3956 L235.2938,216.3956 L235.2938,219.0675 L240.0594,219.0675 L240.0594,221.2238 L235.2938,221.2238 L235.2938,224.4738 L240.5594,224.4738 L240.5594,226.63 Z " fill="#000000"/><text fill="#000000" font-family="sans-serif" font-size="14" lengthAdjust="spacing" textLength="128" x="256.55" y="225.4767">&#1058;&#1080;&#1087;_&#1082;&#1086;&#1085;&#1090;&#1088;&#1072;&#1075;&#1077;&#1085;&#1090;&#1072;</text><line style="stroke:#181818;stroke-width:0.5;" x1="195" x2="414" y1="236.63" y2="236.63"/><ellipse cx="205" cy="250.2784" fill="#000000" rx="3" ry="3" style="stroke:#000000;stroke-width:1.0;"/><text fill="#000000" font-family="sans-serif" font-size="14" lengthAdjust="spacing" textLength="24" x="214" y="253.6251">&#1060;&#1051;</text><ellipse cx="205" cy="266.5753" fill="#000000" rx="3" ry="3" style="stroke:#000000;stroke-width:1.0;"/><text fill="#000000" font-family="sans-serif" font-size="14" lengthAdjust="spacing" textLength="25" x="214" y="269.922">&#1070;&#1051;</text><ellipse cx="205" cy="282.8722" fill="#000000" rx="3" ry="3" style="stroke:#000000;stroke-width:1.0;"/><text fill="#000000" font-family="sans-serif" font-size="14" lengthAdjust="spacing" textLength="195" x="214" y="286.2189">&#1055;&#1088;&#1077;&#1076;&#1089;&#1090;&#1072;&#1074;&#1080;&#1090;&#1077;&#1083;&#1100; &#1079;&#1072;&#1103;&#1074;&#1080;&#1090;&#1077;&#1083;&#1103;</text><line style="stroke:#181818;stroke-width:0.5;" x1="195" x2="414" y1="293.5206" y2="293.5206"/></g><!--class ?????????--><g id="elem_&#1047;&#1072;&#1103;&#1074;&#1083;&#1077;&#1085;&#1080;&#1077;"><rect codeLine="32" fill="#F1F1F1" height="113.1875" id="&#1047;&#1072;&#1103;&#1074;&#1083;&#1077;&#1085;&#1080;&#1077;" rx="2.5" ry="2.5" style="stroke:#181818;stroke-width:0.5;" width="189" x="450" y="196.48"/><ellipse cx="501.25" cy="212.48" fill="#ADD1B2" rx="11" ry="11" style="stroke:#181818;stroke-width:1.0;"/><path d="M505.3594,218.48 L497.6406,218.48 L497.6406,206.0894 L505.3594,206.0894 L505.3594,208.2456 L500.0938,208.2456 L500.0938,210.9175 L504.8594,210.9175 L504.8594,213.0737 L500.0938,213.0737 L500.0938,216.3237 L505.3594,216.3237 L505.3594,218.48 Z " fill="#000000"/><text fill="#000000" font-family="sans-serif" font-size="14" lengthAdjust="spacing" textLength="78" x="521.75" y="217.3267">&#1047;&#1072;&#1103;&#1074;&#1083;&#1077;&#1085;&#1080;&#1077;</text><line style="stroke:#181818;stroke-width:0.5;" x1="451" x2="638" y1="228.48" y2="228.48"/><ellipse cx="461" cy="242.1284" fill="#000000" rx="3" ry="3" style="stroke:#000000;stroke-width:1.0;"/><text fill="#000000" font-family="sans-serif" font-size="14" lengthAdjust="spacing" textLength="97" x="470" y="245.4751">&#1044;&#1072;&#1090;&#1072;_&#1087;&#1086;&#1076;&#1072;&#1095;&#1080;</text><ellipse cx="461" cy="258.4253" fill="#000000" rx="3" ry="3" style="stroke:#000000;stroke-width:1.0;"/><text fill="#000000" font-family="sans-serif" font-size="14" lengthAdjust="spacing" textLength="147" x="470" y="261.772">&#1053;&#1086;&#1084;&#1077;&#1088; &#1088;&#1077;&#1075;&#1080;&#1089;&#1090;&#1088;&#1072;&#1094;&#1080;&#1080;</text><ellipse cx="461" cy="274.7222" fill="#000000" rx="3" ry="3" style="stroke:#000000;stroke-width:1.0;"/><text fill="#000000" font-family="sans-serif" font-size="14" lengthAdjust="spacing" textLength="125" x="470" y="278.0689">&#1044;&#1072;&#1090;&#1072; &#1088;&#1077;&#1079;&#1091;&#1083;&#1100;&#1090;&#1072;&#1090;&#1072;</text><ellipse cx="461" cy="291.0191" fill="#000000" rx="3" ry="3" style="stroke:#000000;stroke-width:1.0;"/><text fill="#000000" font-family="sans-serif" font-size="14" lengthAdjust="spacing" textLength="163" x="470" y="294.3657">&#1057;&#1088;&#1086;&#1082; &#1087;&#1088;&#1077;&#1076;&#1086;&#1089;&#1090;&#1072;&#1074;&#1083;&#1077;&#1085;&#1080;&#1103;</text><line style="stroke:#181818;stroke-width:0.5;" x1="451" x2="638" y1="301.6675" y2="301.6675"/></g><!--class ??????_??????--><g id="elem_&#1057;&#1087;&#1086;&#1089;&#1086;&#1073;_&#1087;&#1086;&#1076;&#1072;&#1095;&#1080;"><rect codeLine="39" fill="#F1F1F1" height="96.8906" id="&#1057;&#1087;&#1086;&#1089;&#1086;&#1073;_&#1087;&#1086;&#1076;&#1072;&#1095;&#1080;" rx="2.5" ry="2.5" style="stroke:#181818;stroke-width:0.5;" width="146" x="457.5" y="426.71"/><ellipse cx="472.5" cy="442.71" fill="#EB937F" rx="11" ry="11" style="stroke:#181818;stroke-width:1.0;"/><path d="M476.6094,448.71 L468.8906,448.71 L468.8906,436.3194 L476.6094,436.3194 L476.6094,438.4756 L471.3438,438.4756 L471.3438,441.1475 L476.1094,441.1475 L476.1094,443.3038 L471.3438,443.3038 L471.3438,446.5538 L476.6094,446.5538 L476.6094,448.71 Z " fill="#000000"/><text fill="#000000" font-family="sans-serif" font-size="14" lengthAdjust="spacing" textLength="114" x="486.5" y="447.5567">&#1057;&#1087;&#1086;&#1089;&#1086;&#1073;_&#1087;&#1086;&#1076;&#1072;&#1095;&#1080;</text><line style="stroke:#181818;stroke-width:0.5;" x1="458.5" x2="602.5" y1="458.71" y2="458.71"/><ellipse cx="468.5" cy="472.3584" fill="#000000" rx="3" ry="3" style="stroke:#000000;stroke-width:1.0;"/><text fill="#000000" font-family="sans-serif" font-size="14" lengthAdjust="spacing" textLength="35" x="477.5" y="475.7051">&#1045;&#1055;&#1043;&#1059;</text><ellipse cx="468.5" cy="488.6553" fill="#000000" rx="3" ry="3" style="stroke:#000000;stroke-width:1.0;"/><text fill="#000000" font-family="sans-serif" font-size="14" lengthAdjust="spacing" textLength="46" x="477.5" y="492.002">&#1051;&#1080;&#1095;&#1085;&#1086;</text><ellipse cx="468.5" cy="504.9522" fill="#000000" rx="3" ry="3" style="stroke:#000000;stroke-width:1.0;"/><text fill="#000000" font-family="sans-serif" font-size="14" lengthAdjust="spacing" textLength="36" x="477.5" y="508.2989">&#1052;&#1060;&#1062;</text><line style="stroke:#181818;stroke-width:0.5;" x1="458.5" x2="602.5" y1="515.6006" y2="515.6006"/></g><!--class ??????_?????????_????--><g id="elem_&#1057;&#1090;&#1072;&#1090;&#1091;&#1089;_&#1079;&#1072;&#1103;&#1074;&#1083;&#1077;&#1085;&#1080;&#1103;_&#1045;&#1055;&#1043;&#1059;"><rect codeLine="45" fill="#F1F1F1" height="210.9688" id="&#1057;&#1090;&#1072;&#1090;&#1091;&#1089;_&#1079;&#1072;&#1103;&#1074;&#1083;&#1077;&#1085;&#1080;&#1103;_&#1045;&#1055;&#1043;&#1059;" rx="2.5" ry="2.5" style="stroke:#181818;stroke-width:0.5;" width="446" x="638.5" y="369.67"/><ellipse cx="769.25" cy="385.67" fill="#EB937F" rx="11" ry="11" style="stroke:#181818;stroke-width:1.0;"/><path d="M773.3594,391.67 L765.6406,391.67 L765.6406,379.2794 L773.3594,379.2794 L773.3594,381.4356 L768.0938,381.4356 L768.0938,384.1075 L772.8594,384.1075 L772.8594,386.2637 L768.0938,386.2637 L768.0938,389.5137 L773.3594,389.5137 L773.3594,391.67 Z " fill="#000000"/><text fill="#000000" font-family="sans-serif" font-size="14" lengthAdjust="spacing" textLength="176" x="789.75" y="390.5167">&#1057;&#1090;&#1072;&#1090;&#1091;&#1089;_&#1079;&#1072;&#1103;&#1074;&#1083;&#1077;&#1085;&#1080;&#1103;_&#1045;&#1055;&#1043;&#1059;</text><line style="stroke:#181818;stroke-width:0.5;" x1="639.5" x2="1083.5" y1="401.67" y2="401.67"/><ellipse cx="649.5" cy="415.3184" fill="#000000" rx="3" ry="3" style="stroke:#000000;stroke-width:1.0;"/><text fill="#000000" font-family="sans-serif" font-size="14" lengthAdjust="spacing" textLength="266" x="658.5" y="418.6651">&#1047;&#1072;&#1103;&#1074;&#1083;&#1077;&#1085;&#1080;&#1077; &#1086;&#1090;&#1087;&#1088;&#1072;&#1074;&#1083;&#1077;&#1085;&#1086; &#1074; &#1074;&#1077;&#1076;&#1086;&#1084;&#1089;&#1090;&#1074;&#1086;</text><ellipse cx="649.5" cy="431.6153" fill="#000000" rx="3" ry="3" style="stroke:#000000;stroke-width:1.0;"/><text fill="#000000" font-family="sans-serif" font-size="14" lengthAdjust="spacing" textLength="245" x="658.5" y="434.962">&#1047;&#1072;&#1103;&#1074;&#1083;&#1077;&#1085;&#1080;&#1077; &#1087;&#1086;&#1083;&#1091;&#1095;&#1077;&#1085;&#1086; &#1074;&#1077;&#1076;&#1086;&#1084;&#1089;&#1090;&#1074;&#1086;&#1084;</text><ellipse cx="649.5" cy="447.9122" fill="#000000" rx="3" ry="3" style="stroke:#000000;stroke-width:1.0;"/><text fill="#000000" font-family="sans-serif" font-size="14" lengthAdjust="spacing" textLength="242" x="658.5" y="451.2589">&#1047;&#1072;&#1103;&#1074;&#1083;&#1077;&#1085;&#1080;&#1077; &#1090;&#1088;&#1077;&#1073;&#1091;&#1077;&#1090; &#1080;&#1089;&#1087;&#1088;&#1072;&#1074;&#1083;&#1077;&#1085;&#1080;&#1103;</text><ellipse cx="649.5" cy="464.2091" fill="#000000" rx="3" ry="3" style="stroke:#000000;stroke-width:1.0;"/><text fill="#000000" font-family="sans-serif" font-size="14" lengthAdjust="spacing" textLength="115" x="658.5" y="467.5557">&#1054;&#1090;&#1082;&#1072;&#1079; &#1074; &#1087;&#1088;&#1080;&#1077;&#1084;&#1077;</text><ellipse cx="649.5" cy="480.5059" fill="#000000" rx="3" ry="3" style="stroke:#000000;stroke-width:1.0;"/><text fill="#000000" font-family="sans-serif" font-size="14" lengthAdjust="spacing" textLength="219" x="658.5" y="483.8526">&#1047;&#1072;&#1103;&#1074;&#1083;&#1077;&#1085;&#1080;&#1077; &#1079;&#1072;&#1088;&#1077;&#1075;&#1080;&#1089;&#1090;&#1088;&#1080;&#1088;&#1086;&#1074;&#1072;&#1085;&#1086;</text><ellipse cx="649.5" cy="496.8028" fill="#000000" rx="3" ry="3" style="stroke:#000000;stroke-width:1.0;"/><text fill="#000000" font-family="sans-serif" font-size="14" lengthAdjust="spacing" textLength="261" x="658.5" y="500.1495">&#1054;&#1090;&#1082;&#1072;&#1079;&#1072;&#1085;&#1086; &#1074; &#1087;&#1088;&#1077;&#1076;&#1086;&#1089;&#1090;&#1072;&#1074;&#1083;&#1077;&#1085;&#1080;&#1080; &#1091;&#1089;&#1083;&#1091;&#1075;&#1080;</text><ellipse cx="649.5" cy="513.0997" fill="#000000" rx="3" ry="3" style="stroke:#000000;stroke-width:1.0;"/><text fill="#000000" font-family="sans-serif" font-size="14" lengthAdjust="spacing" textLength="326" x="658.5" y="516.4464">&#1055;&#1088;&#1080;&#1085;&#1103;&#1090;&#1086; &#1088;&#1077;&#1096;&#1077;&#1085;&#1080;&#1077; &#1086; &#1087;&#1088;&#1077;&#1076;&#1086;&#1089;&#1090;&#1072;&#1074;&#1083;&#1077;&#1085;&#1080;&#1080; &#1091;&#1089;&#1083;&#1091;&#1075;&#1080;</text><ellipse cx="649.5" cy="529.3966" fill="#000000" rx="3" ry="3" style="stroke:#000000;stroke-width:1.0;"/><text fill="#000000" font-family="sans-serif" font-size="14" lengthAdjust="spacing" textLength="306" x="658.5" y="532.7432">&#1056;&#1077;&#1079;&#1091;&#1083;&#1100;&#1090;&#1072;&#1090; &#1074;&#1099;&#1076;&#1072;&#1085; &#1079;&#1072;&#1103;&#1074;&#1080;&#1090;&#1077;&#1083;&#1102; &#1074; &#1074;&#1077;&#1076;&#1086;&#1084;&#1089;&#1090;&#1074;&#1077;</text><ellipse cx="649.5" cy="545.6934" fill="#000000" rx="3" ry="3" style="stroke:#000000;stroke-width:1.0;"/><text fill="#000000" font-family="sans-serif" font-size="14" lengthAdjust="spacing" textLength="420" x="658.5" y="549.0401">&#1056;&#1077;&#1079;&#1091;&#1083;&#1100;&#1090;&#1072;&#1090; &#1087;&#1086;&#1083;&#1091;&#1095;&#1077;&#1085; &#1074; &#1052;&#1060;&#1062;. &#1054;&#1078;&#1080;&#1076;&#1072;&#1085;&#1080;&#1077; &#1074;&#1099;&#1076;&#1072;&#1095;&#1080; &#1079;&#1072;&#1103;&#1074;&#1080;&#1090;&#1077;&#1083;&#1102;</text><ellipse cx="649.5" cy="561.9903" fill="#000000" rx="3" ry="3" style="stroke:#000000;stroke-width:1.0;"/><text fill="#000000" font-family="sans-serif" font-size="14" lengthAdjust="spacing" textLength="262" x="658.5" y="565.337">&#1056;&#1077;&#1079;&#1091;&#1083;&#1100;&#1090;&#1072;&#1090; &#1074;&#1099;&#1076;&#1072;&#1085; &#1079;&#1072;&#1103;&#1074;&#1080;&#1090;&#1077;&#1083;&#1102; &#1074; &#1052;&#1060;&#1062;</text><line style="stroke:#181818;stroke-width:0.5;" x1="639.5" x2="1083.5" y1="572.6388" y2="572.6388"/></g><!--class ???--><g id="elem_&#1062;&#1040;&#1056;"><rect codeLine="58" fill="#F1F1F1" height="96.8906" id="&#1062;&#1040;&#1056;" rx="2.5" ry="2.5" style="stroke:#181818;stroke-width:0.5;" width="113" x="488" y="23.3"/><ellipse cx="526.4" cy="39.3" fill="#ADD1B2" rx="11" ry="11" style="stroke:#181818;stroke-width:1.0;"/><path d="M530.5094,45.3 L522.7906,45.3 L522.7906,32.9094 L530.5094,32.9094 L530.5094,35.0656 L525.2438,35.0656 L525.2438,37.7375 L530.0094,37.7375 L530.0094,39.8937 L525.2438,39.8937 L525.2438,43.1437 L530.5094,43.1437 L530.5094,45.3 Z " fill="#000000"/><text fill="#000000" font-family="sans-serif" font-size="14" lengthAdjust="spacing" textLength="29" x="545.6" y="44.1467">&#1062;&#1040;&#1056;</text><line style="stroke:#181818;stroke-width:0.5;" x1="489" x2="600" y1="55.3" y2="55.3"/><ellipse cx="499" cy="68.9484" fill="#000000" rx="3" ry="3" style="stroke:#000000;stroke-width:1.0;"/><text fill="#000000" font-family="sans-serif" font-size="14" lengthAdjust="spacing" textLength="47" x="508" y="72.2951">&#1053;&#1086;&#1084;&#1077;&#1088;</text><ellipse cx="499" cy="85.2453" fill="#000000" rx="3" ry="3" style="stroke:#000000;stroke-width:1.0;"/><text fill="#000000" font-family="sans-serif" font-size="14" lengthAdjust="spacing" textLength="87" x="508" y="88.592">&#1053;&#1072;&#1079;&#1085;&#1072;&#1095;&#1077;&#1085;&#1080;&#1077;</text><ellipse cx="499" cy="101.5422" fill="#000000" rx="3" ry="3" style="stroke:#000000;stroke-width:1.0;"/><text fill="#000000" font-family="sans-serif" font-size="14" lengthAdjust="spacing" textLength="53" x="508" y="104.8889">&#1042;&#1077;&#1088;&#1089;&#1080;&#1103;</text><line style="stroke:#181818;stroke-width:0.5;" x1="489" x2="600" y1="112.1906" y2="112.1906"/></g><!--link ???????????? to ???--><g id="link_&#1055;&#1086;&#1083;&#1100;&#1079;&#1086;&#1074;&#1072;&#1090;&#1077;&#1083;&#1100;_&#1040;&#1044;&#1041;"><path codeLine="64" d="M159.94,253.64 C174.2,253.64 185,253.64 185,253.64 C185,253.64 185,475.64 185,475.64 C185,475.64 203.65,475.64 232.15,475.64 " fill="none" id="&#1055;&#1086;&#1083;&#1100;&#1079;&#1086;&#1074;&#1072;&#1090;&#1077;&#1083;&#1100;-to-&#1040;&#1044;&#1041;" style="stroke:#181818;stroke-width:1.0;"/><polygon fill="#181818" points="238.15,475.64,229.15,471.64,233.15,475.64,229.15,479.64,238.15,475.64" style="stroke:#181818;stroke-width:1.0;"/><text fill="#000000" font-family="sans-serif" font-size="13" lengthAdjust="spacing" textLength="7" x="167.3588" y="249.9984">*</text><text fill="#000000" font-family="sans-serif" font-size="13" lengthAdjust="spacing" textLength="7" x="223.5145" y="472.1096">*</text></g><!--link ????????? to ???--><g id="link_&#1047;&#1072;&#1103;&#1074;&#1083;&#1077;&#1085;&#1080;&#1077;_&#1040;&#1044;&#1041;"><path codeLine="65" d="M453.75,310.1 C453.75,376.05 453.75,475.64 453.75,475.64 C453.75,475.64 439.48,475.64 414.93,475.64 " fill="none" id="&#1047;&#1072;&#1103;&#1074;&#1083;&#1077;&#1085;&#1080;&#1077;-to-&#1040;&#1044;&#1041;" style="stroke:#181818;stroke-width:1.0;"/><polygon fill="#181818" points="408.93,475.64,417.93,479.64,413.93,475.64,417.93,471.64,408.93,475.64" style="stroke:#181818;stroke-width:1.0;"/><text fill="#000000" font-family="sans-serif" font-size="13" lengthAdjust="spacing" textLength="7" x="435.8523" y="329.6354">*</text><text fill="#000000" font-family="sans-serif" font-size="13" lengthAdjust="spacing" textLength="8" x="416.6154" y="472.1096">1</text></g><!--link ?????????? to ???_???????????--><g id="link_&#1050;&#1086;&#1085;&#1090;&#1088;&#1072;&#1075;&#1077;&#1085;&#1090;_&#1058;&#1080;&#1087;_&#1082;&#1086;&#1085;&#1090;&#1088;&#1072;&#1075;&#1077;&#1085;&#1090;&#1072;"><path codeLine="66" d="M331.25,136.95 C331.25,159.19 331.25,177.65 331.25,198.36 " fill="none" id="&#1050;&#1086;&#1085;&#1090;&#1088;&#1072;&#1075;&#1077;&#1085;&#1090;-to-&#1058;&#1080;&#1087;_&#1082;&#1086;&#1085;&#1090;&#1088;&#1072;&#1075;&#1077;&#1085;&#1090;&#1072;" style="stroke:#181818;stroke-width:1.0;"/><polygon fill="#181818" points="331.25,204.36,335.25,195.36,331.25,199.36,327.25,195.36,331.25,204.36" style="stroke:#181818;stroke-width:1.0;"/><text fill="#000000" font-family="sans-serif" font-size="13" lengthAdjust="spacing" textLength="7" x="323.4508" y="156.5217">*</text><text fill="#000000" font-family="sans-serif" font-size="13" lengthAdjust="spacing" textLength="8" x="326.4492" y="193.531">1</text></g><!--link ?????????? to ?????????--><g id="link_&#1050;&#1086;&#1085;&#1090;&#1088;&#1072;&#1075;&#1077;&#1085;&#1090;_&#1047;&#1072;&#1103;&#1074;&#1083;&#1077;&#1085;&#1080;&#1077;"><path codeLine="67" d="M419.25,136.95 C419.25,168.92 419.25,200.64 419.25,200.64 C419.25,200.64 426.1,200.64 443.57,200.64 " fill="none" id="&#1050;&#1086;&#1085;&#1090;&#1088;&#1072;&#1075;&#1077;&#1085;&#1090;-to-&#1047;&#1072;&#1103;&#1074;&#1083;&#1077;&#1085;&#1080;&#1077;" style="stroke:#181818;stroke-width:1.0;"/><polygon fill="#181818" points="449.57,200.64,440.57,196.64,444.57,200.64,440.57,204.64,449.57,200.64" style="stroke:#181818;stroke-width:1.0;"/><text fill="#000000" font-family="sans-serif" font-size="13" lengthAdjust="spacing" textLength="8" x="419.4742" y="156.5217">1</text><text fill="#000000" font-family="sans-serif" font-size="13" lengthAdjust="spacing" textLength="7" x="435.034" y="193.1233">*</text></g><!--link ????????? to ??????_?????????_????--><g id="link_&#1047;&#1072;&#1103;&#1074;&#1083;&#1077;&#1085;&#1080;&#1077;_&#1057;&#1090;&#1072;&#1090;&#1091;&#1089;_&#1079;&#1072;&#1103;&#1074;&#1083;&#1077;&#1085;&#1080;&#1103;_&#1045;&#1055;&#1043;&#1059;"><path codeLine="68" d="M621,309.77 C621,350.64 621,398.64 621,398.64 C621,398.64 621.47,398.64 632.3,398.64 " fill="none" id="&#1047;&#1072;&#1103;&#1074;&#1083;&#1077;&#1085;&#1080;&#1077;-to-&#1057;&#1090;&#1072;&#1090;&#1091;&#1089;_&#1079;&#1072;&#1103;&#1074;&#1083;&#1077;&#1085;&#1080;&#1103;_&#1045;&#1055;&#1043;&#1059;" style="stroke:#181818;stroke-width:1.0;"/><polygon fill="#181818" points="638.3,398.64,629.3,394.64,633.3,398.64,629.3,402.64,638.3,398.64" style="stroke:#181818;stroke-width:1.0;"/><text fill="#000000" font-family="sans-serif" font-size="13" lengthAdjust="spacing" textLength="7" x="622.8969" y="329.6689">*</text><text fill="#000000" font-family="sans-serif" font-size="13" lengthAdjust="spacing" textLength="8" x="622.845" y="392.9524">1</text></g><!--link ??? to ?????????--><g id="link_&#1062;&#1040;&#1056;_&#1047;&#1072;&#1103;&#1074;&#1083;&#1077;&#1085;&#1080;&#1077;"><path codeLine="69" d="M544.5,120.34 C544.5,143.73 544.5,165.93 544.5,190.31 " fill="none" id="&#1062;&#1040;&#1056;-to-&#1047;&#1072;&#1103;&#1074;&#1083;&#1077;&#1085;&#1080;&#1077;" style="stroke:#181818;stroke-width:1.0;"/><polygon fill="#181818" points="544.5,196.31,548.5,187.31,544.5,191.31,540.5,187.31,544.5,196.31" style="stroke:#181818;stroke-width:1.0;"/><text fill="#000000" font-family="sans-serif" font-size="13" lengthAdjust="spacing" textLength="8" x="535.9375" y="140.3045">1</text><text fill="#000000" font-family="sans-serif" font-size="13" lengthAdjust="spacing" textLength="7" x="537.0734" y="185.5528">*</text></g><!--link ????????? to ??????_??????--><g id="link_&#1047;&#1072;&#1103;&#1074;&#1083;&#1077;&#1085;&#1080;&#1077;_&#1057;&#1087;&#1086;&#1089;&#1086;&#1073;_&#1087;&#1086;&#1076;&#1072;&#1095;&#1080;"><path codeLine="70" d="M530.5,309.98 C530.5,345.96 530.5,385.99 530.5,420.31 " fill="none" id="&#1047;&#1072;&#1103;&#1074;&#1083;&#1077;&#1085;&#1080;&#1077;-to-&#1057;&#1087;&#1086;&#1089;&#1086;&#1073;_&#1087;&#1086;&#1076;&#1072;&#1095;&#1080;" style="stroke:#181818;stroke-width:1.0;"/><polygon fill="#181818" points="530.5,426.31,534.5,417.31,530.5,421.31,526.5,417.31,530.5,426.31" style="stroke:#181818;stroke-width:1.0;"/><text fill="#000000" font-family="sans-serif" font-size="13" lengthAdjust="spacing" textLength="7" x="521.3672" y="329.9045">*</text><text fill="#000000" font-family="sans-serif" font-size="13" lengthAdjust="spacing" textLength="8" x="521.9625" y="415.8144">1</text></g><!--link ???????????? to ???_????????????--><g id="link_&#1055;&#1086;&#1083;&#1100;&#1079;&#1086;&#1074;&#1072;&#1090;&#1077;&#1083;&#1100;_&#1058;&#1080;&#1087;_&#1087;&#1086;&#1083;&#1100;&#1079;&#1086;&#1074;&#1072;&#1090;&#1077;&#1083;&#1103;"><path codeLine="71" d="M91.5,293.81 C91.5,333.88 91.5,388.7 91.5,428.68 " fill="none" id="&#1055;&#1086;&#1083;&#1100;&#1079;&#1086;&#1074;&#1072;&#1090;&#1077;&#1083;&#1100;-to-&#1058;&#1080;&#1087;_&#1087;&#1086;&#1083;&#1100;&#1079;&#1086;&#1074;&#1072;&#1090;&#1077;&#1083;&#1103;" style="stroke:#181818;stroke-width:1.0;"/><polygon fill="#181818" points="91.5,434.68,95.5,425.68,91.5,429.68,87.5,425.68,91.5,434.68" style="stroke:#181818;stroke-width:1.0;"/><text fill="#000000" font-family="sans-serif" font-size="13" lengthAdjust="spacing" textLength="7" x="83.9422" y="313.5746">*</text><text fill="#000000" font-family="sans-serif" font-size="13" lengthAdjust="spacing" textLength="8" x="82.8375" y="423.8117">1</text></g><!--SRC=[dLNRJjj047ttLwnuHA8IFy1RloFY0QbH8I187r1KAHUfL2ggMw02SKjw4O-L2N6pXCJvXTa_wfdPjRF6Dj1A8DkxEsVEd3cpsNjRR-oixwvlgSrwOwEvlxEXjdURRxQ3u7MZMM_kA-fJGW_caCPu3YaoNOhvMxK2fPRfZAOcbBSlT49VW_UBG5bmnwue8arJXCui39wQOjdxJdFIfeFrYQ8RX0qKTcD5btH4VOluRalH3qJCQpXSnYTiEH8ZPD6CRZgcQzfo835jsQqenITzZgsP3QGxfckwXKhFKCwLl9q3iYzlrtHC0xVw6z4QHBGve1Y5JV1rhm0umWOM2YLDYaafScb_qOK5TSy-Om2fmsTGXSuQWh8Y4tfBeL_OgTjya1v0UuT_8Zf4LjSHFWv8kvObt33JLfBnpbFq0-Ar7ssFZ4sFYV02_zlcOaSQExUyqOkKkMEIqcGzs0g9ME4sHyXI_GQrZ-cdl5-8kZ2JV5r2fXiFnb8mFTEfPQfawMefa5EWg0muT8NmWcQYQ8W_MmASm4KCNVOI06lI7Xl01J-Ef6b5h6WSqot4Z64-6Oqy5-ryU0sa2TR7mcqkhekvPrMiM8fyBxMqnyvZaWUrQnbqQUz8AnQPIsNGpA0OG1Fou8anp4TFsNz46pps5GYPJ-mBcXKT_xcqIt4LKgvB4Yf6UgKmpdzaXAEKjqlAPYn9-zzKFUFQCRNtNoi_WTaLEWQTo9aglJwF-0HKSuDKULylBI-fbPKrURhBkiGZsQdLnQcoEp5txgbhh29yrIDJOF4iiHSEUE3aV3gRUZvTnRNq0h4zUIf-kFu2]--></g></svg>