<?xml version="1.0" encoding="us-ascii" standalone="no"?><svg xmlns="http://www.w3.org/2000/svg" xmlns:xlink="http://www.w3.org/1999/xlink" contentStyleType="text/css" height="586px" preserveAspectRatio="none" style="width:962px;height:586px;background:#FFFFFF;" version="1.1" viewBox="0 0 962 586" width="962px" zoomAndPan="magnify"><defs/><g><!--class ????????????--><g id="elem_&#1055;&#1086;&#1083;&#1100;&#1079;&#1086;&#1074;&#1072;&#1090;&#1077;&#1083;&#1100;"><rect codeLine="3" fill="#F1F1F1" height="80.5938" id="&#1055;&#1086;&#1083;&#1100;&#1079;&#1086;&#1074;&#1072;&#1090;&#1077;&#1083;&#1100;" rx="2.5" ry="2.5" style="stroke:#181818;stroke-width:0.5;" width="139" x="23.5" y="31"/><ellipse cx="38.5" cy="47" fill="#ADD1B2" rx="11" ry="11" style="stroke:#181818;stroke-width:1.0;"/><path d="M37.2969,47.875 L38.75,47.875 L38.75,47.9844 C38.75,48.3906 38.7813,48.5469 38.8594,48.7031 C39.0156,48.9531 39.2969,49.1094 39.5938,49.1094 C39.8438,49.1094 40.1094,48.9688 40.2656,48.75 C40.3906,48.5938 40.4219,48.4375 40.4219,47.9844 L40.4219,46.0625 C40.4219,45.9063 40.4219,45.8594 40.4063,45.7031 C40.3438,45.2344 40.0313,44.9219 39.5781,44.9219 C39.3281,44.9219 39.0625,45.0625 38.8906,45.2813 C38.7813,45.4531 38.75,45.6094 38.75,46.0625 L38.75,46.1875 L37.2969,46.1875 L37.2969,43.7813 L41.2813,43.7813 L41.2813,44.6406 C41.2813,45.0469 41.3125,45.2188 41.3906,45.375 C41.5625,45.625 41.8438,45.7813 42.125,45.7813 C42.3906,45.7813 42.6563,45.6406 42.8281,45.4219 C42.9375,45.25 42.9688,45.1094 42.9688,44.6406 L42.9688,42.0938 L35.3438,42.0938 C34.9063,42.0938 34.7813,42.1094 34.625,42.2031 C34.375,42.3594 34.2188,42.6563 34.2188,42.9375 C34.2188,43.2188 34.3594,43.4688 34.5781,43.6406 C34.7344,43.75 34.9219,43.7813 35.3438,43.7813 L35.5938,43.7813 L35.5938,50.2969 L35.3438,50.2969 C34.9375,50.2969 34.7813,50.3125 34.625,50.4219 C34.375,50.5938 34.2188,50.8594 34.2188,51.1563 C34.2188,51.4219 34.3594,51.6719 34.5781,51.8281 C34.7188,51.9531 34.9531,52 35.3438,52 L43.3438,52 L43.3438,49.4219 C43.3438,48.9844 43.3125,48.8438 43.2344,48.6875 C43.0625,48.4375 42.7813,48.2813 42.5,48.2813 C42.2344,48.2813 41.9688,48.3906 41.7969,48.6406 C41.6875,48.7969 41.6563,48.9375 41.6563,49.4219 L41.6563,50.2969 L37.2969,50.2969 L37.2969,47.875 Z " fill="#000000"/><text fill="#000000" font-family="sans-serif" font-size="14" lengthAdjust="spacing" textLength="107" x="52.5" y="51.8467">&#1055;&#1086;&#1083;&#1100;&#1079;&#1086;&#1074;&#1072;&#1090;&#1077;&#1083;&#1100;</text><line style="stroke:#181818;stroke-width:0.5;" x1="24.5" x2="161.5" y1="63" y2="63"/><ellipse cx="34.5" cy="76.6484" fill="#000000" rx="3" ry="3" style="stroke:#000000;stroke-width:1.0;"/><text fill="#000000" font-family="sans-serif" font-size="14" lengthAdjust="spacing" textLength="30" x="43.5" y="79.9951">&#1048;&#1084;&#1103;</text><ellipse cx="34.5" cy="92.9453" fill="#000000" rx="3" ry="3" style="stroke:#000000;stroke-width:1.0;"/><text fill="#000000" font-family="sans-serif" font-size="14" lengthAdjust="spacing" textLength="31" x="43.5" y="96.292">&#1040;&#1044;&#1041;</text><line style="stroke:#181818;stroke-width:0.5;" x1="24.5" x2="161.5" y1="103.5938" y2="103.5938"/></g><!--class ???_????????????--><g id="elem_&#1058;&#1080;&#1087;_&#1087;&#1086;&#1083;&#1100;&#1079;&#1086;&#1074;&#1072;&#1090;&#1077;&#1083;&#1103;"><rect codeLine="8" fill="#F1F1F1" height="80.5938" id="&#1058;&#1080;&#1087;_&#1087;&#1086;&#1083;&#1100;&#1079;&#1086;&#1074;&#1072;&#1090;&#1077;&#1083;&#1103;" rx="2.5" ry="2.5" style="stroke:#181818;stroke-width:0.5;" width="172" x="7" y="212"/><ellipse cx="22" cy="228" fill="#EB937F" rx="11" ry="11" style="stroke:#181818;stroke-width:1.0;"/><path d="M20.7969,228.875 L22.25,228.875 L22.25,228.9844 C22.25,229.3906 22.2813,229.5469 22.3594,229.7031 C22.5156,229.9531 22.7969,230.1094 23.0938,230.1094 C23.3438,230.1094 23.6094,229.9688 23.7656,229.75 C23.8906,229.5938 23.9219,229.4375 23.9219,228.9844 L23.9219,227.0625 C23.9219,226.9063 23.9219,226.8594 23.9063,226.7031 C23.8438,226.2344 23.5313,225.9219 23.0781,225.9219 C22.8281,225.9219 22.5625,226.0625 22.3906,226.2813 C22.2813,226.4531 22.25,226.6094 22.25,227.0625 L22.25,227.1875 L20.7969,227.1875 L20.7969,224.7813 L24.7813,224.7813 L24.7813,225.6406 C24.7813,226.0469 24.8125,226.2188 24.8906,226.375 C25.0625,226.625 25.3438,226.7813 25.625,226.7813 C25.8906,226.7813 26.1563,226.6406 26.3281,226.4219 C26.4375,226.25 26.4688,226.1094 26.4688,225.6406 L26.4688,223.0938 L18.8438,223.0938 C18.4063,223.0938 18.2813,223.1094 18.125,223.2031 C17.875,223.3594 17.7188,223.6563 17.7188,223.9375 C17.7188,224.2188 17.8594,224.4688 18.0781,224.6406 C18.2344,224.75 18.4219,224.7813 18.8438,224.7813 L19.0938,224.7813 L19.0938,231.2969 L18.8438,231.2969 C18.4375,231.2969 18.2813,231.3125 18.125,231.4219 C17.875,231.5938 17.7188,231.8594 17.7188,232.1563 C17.7188,232.4219 17.8594,232.6719 18.0781,232.8281 C18.2188,232.9531 18.4531,233 18.8438,233 L26.8438,233 L26.8438,230.4219 C26.8438,229.9844 26.8125,229.8438 26.7344,229.6875 C26.5625,229.4375 26.2813,229.2813 26,229.2813 C25.7344,229.2813 25.4688,229.3906 25.2969,229.6406 C25.1875,229.7969 25.1563,229.9375 25.1563,230.4219 L25.1563,231.2969 L20.7969,231.2969 L20.7969,228.875 Z " fill="#000000"/><text fill="#000000" font-family="sans-serif" font-size="14" lengthAdjust="spacing" textLength="140" x="36" y="232.8467">&#1058;&#1080;&#1087;_&#1087;&#1086;&#1083;&#1100;&#1079;&#1086;&#1074;&#1072;&#1090;&#1077;&#1083;&#1103;</text><line style="stroke:#181818;stroke-width:0.5;" x1="8" x2="178" y1="244" y2="244"/><text fill="#000000" font-family="sans-serif" font-size="14" lengthAdjust="spacing" textLength="121" x="13" y="260.9951">&#1040;&#1076;&#1084;&#1080;&#1085;&#1080;&#1089;&#1090;&#1088;&#1072;&#1090;&#1086;&#1088;</text><text fill="#000000" font-family="sans-serif" font-size="14" lengthAdjust="spacing" textLength="107" x="13" y="277.292">&#1055;&#1086;&#1083;&#1100;&#1079;&#1086;&#1074;&#1072;&#1090;&#1077;&#1083;&#1100;</text><line style="stroke:#181818;stroke-width:0.5;" x1="8" x2="178" y1="284.5938" y2="284.5938"/></g><!--class ?????????--><g id="elem_&#1047;&#1072;&#1103;&#1074;&#1080;&#1090;&#1077;&#1083;&#1100;"><rect codeLine="13" fill="#F1F1F1" height="129.4844" id="&#1047;&#1072;&#1103;&#1074;&#1080;&#1090;&#1077;&#1083;&#1100;" rx="2.5" ry="2.5" style="stroke:#181818;stroke-width:0.5;" width="181" x="258.5" y="7"/><ellipse cx="304.75" cy="23" fill="#ADD1B2" rx="11" ry="11" style="stroke:#181818;stroke-width:1.0;"/><path d="M303.5469,23.875 L305,23.875 L305,23.9844 C305,24.3906 305.0313,24.5469 305.1094,24.7031 C305.2656,24.9531 305.5469,25.1094 305.8438,25.1094 C306.0938,25.1094 306.3594,24.9688 306.5156,24.75 C306.6406,24.5938 306.6719,24.4375 306.6719,23.9844 L306.6719,22.0625 C306.6719,21.9063 306.6719,21.8594 306.6563,21.7031 C306.5938,21.2344 306.2813,20.9219 305.8281,20.9219 C305.5781,20.9219 305.3125,21.0625 305.1406,21.2813 C305.0313,21.4531 305,21.6094 305,22.0625 L305,22.1875 L303.5469,22.1875 L303.5469,19.7813 L307.5313,19.7813 L307.5313,20.6406 C307.5313,21.0469 307.5625,21.2188 307.6406,21.375 C307.8125,21.625 308.0938,21.7813 308.375,21.7813 C308.6406,21.7813 308.9063,21.6406 309.0781,21.4219 C309.1875,21.25 309.2188,21.1094 309.2188,20.6406 L309.2188,18.0938 L301.5938,18.0938 C301.1563,18.0938 301.0313,18.1094 300.875,18.2031 C300.625,18.3594 300.4688,18.6563 300.4688,18.9375 C300.4688,19.2188 300.6094,19.4688 300.8281,19.6406 C300.9844,19.75 301.1719,19.7813 301.5938,19.7813 L301.8438,19.7813 L301.8438,26.2969 L301.5938,26.2969 C301.1875,26.2969 301.0313,26.3125 300.875,26.4219 C300.625,26.5938 300.4688,26.8594 300.4688,27.1563 C300.4688,27.4219 300.6094,27.6719 300.8281,27.8281 C300.9688,27.9531 301.2031,28 301.5938,28 L309.5938,28 L309.5938,25.4219 C309.5938,24.9844 309.5625,24.8438 309.4844,24.6875 C309.3125,24.4375 309.0313,24.2813 308.75,24.2813 C308.4844,24.2813 308.2188,24.3906 308.0469,24.6406 C307.9375,24.7969 307.9063,24.9375 307.9063,25.4219 L307.9063,26.2969 L303.5469,26.2969 L303.5469,23.875 Z " fill="#000000"/><text fill="#000000" font-family="sans-serif" font-size="14" lengthAdjust="spacing" textLength="80" x="325.25" y="27.8467">&#1047;&#1072;&#1103;&#1074;&#1080;&#1090;&#1077;&#1083;&#1100;</text><line style="stroke:#181818;stroke-width:0.5;" x1="259.5" x2="438.5" y1="39" y2="39"/><ellipse cx="269.5" cy="52.6484" fill="#000000" rx="3" ry="3" style="stroke:#000000;stroke-width:1.0;"/><text fill="#000000" font-family="sans-serif" font-size="14" lengthAdjust="spacing" textLength="30" x="278.5" y="55.9951">&#1048;&#1084;&#1103;</text><ellipse cx="269.5" cy="68.9453" fill="#000000" rx="3" ry="3" style="stroke:#000000;stroke-width:1.0;"/><text fill="#000000" font-family="sans-serif" font-size="14" lengthAdjust="spacing" textLength="30" x="278.5" y="72.292">&#1048;&#1053;&#1053;</text><ellipse cx="269.5" cy="85.2422" fill="#000000" rx="3" ry="3" style="stroke:#000000;stroke-width:1.0;"/><text fill="#000000" font-family="sans-serif" font-size="14" lengthAdjust="spacing" textLength="30" x="278.5" y="88.5889">&#1050;&#1055;&#1055;</text><ellipse cx="269.5" cy="101.5391" fill="#000000" rx="3" ry="3" style="stroke:#000000;stroke-width:1.0;"/><text fill="#000000" font-family="sans-serif" font-size="14" lengthAdjust="spacing" textLength="39" x="278.5" y="104.8857">&#1054;&#1043;&#1056;&#1053;</text><ellipse cx="269.5" cy="117.8359" fill="#000000" rx="3" ry="3" style="stroke:#000000;stroke-width:1.0;"/><text fill="#000000" font-family="sans-serif" font-size="14" lengthAdjust="spacing" textLength="155" x="278.5" y="121.1826">&#1070;&#1088;&#1080;&#1076;&#1080;&#1095;&#1077;&#1089;&#1082;&#1080;&#1081; &#1072;&#1076;&#1088;&#1077;&#1089;</text><line style="stroke:#181818;stroke-width:0.5;" x1="259.5" x2="438.5" y1="128.4844" y2="128.4844"/></g><!--class ???_?????????--><g id="elem_&#1058;&#1080;&#1087;_&#1079;&#1072;&#1103;&#1074;&#1080;&#1090;&#1077;&#1083;&#1103;"><rect codeLine="21" fill="#F1F1F1" height="96.8906" id="&#1058;&#1080;&#1087;_&#1079;&#1072;&#1103;&#1074;&#1080;&#1090;&#1077;&#1083;&#1103;" rx="2.5" ry="2.5" style="stroke:#181818;stroke-width:0.5;" width="213" x="214.5" y="204"/><ellipse cx="260.25" cy="220" fill="#EB937F" rx="11" ry="11" style="stroke:#181818;stroke-width:1.0;"/><path d="M259.0469,220.875 L260.5,220.875 L260.5,220.9844 C260.5,221.3906 260.5313,221.5469 260.6094,221.7031 C260.7656,221.9531 261.0469,222.1094 261.3438,222.1094 C261.5938,222.1094 261.8594,221.9688 262.0156,221.75 C262.1406,221.5938 262.1719,221.4375 262.1719,220.9844 L262.1719,219.0625 C262.1719,218.9063 262.1719,218.8594 262.1563,218.7031 C262.0938,218.2344 261.7813,217.9219 261.3281,217.9219 C261.0781,217.9219 260.8125,218.0625 260.6406,218.2813 C260.5313,218.4531 260.5,218.6094 260.5,219.0625 L260.5,219.1875 L259.0469,219.1875 L259.0469,216.7813 L263.0313,216.7813 L263.0313,217.6406 C263.0313,218.0469 263.0625,218.2188 263.1406,218.375 C263.3125,218.625 263.5938,218.7813 263.875,218.7813 C264.1406,218.7813 264.4063,218.6406 264.5781,218.4219 C264.6875,218.25 264.7188,218.1094 264.7188,217.6406 L264.7188,215.0938 L257.0938,215.0938 C256.6563,215.0938 256.5313,215.1094 256.375,215.2031 C256.125,215.3594 255.9688,215.6563 255.9688,215.9375 C255.9688,216.2188 256.1094,216.4688 256.3281,216.6406 C256.4844,216.75 256.6719,216.7813 257.0938,216.7813 L257.3438,216.7813 L257.3438,223.2969 L257.0938,223.2969 C256.6875,223.2969 256.5313,223.3125 256.375,223.4219 C256.125,223.5938 255.9688,223.8594 255.9688,224.1563 C255.9688,224.4219 256.1094,224.6719 256.3281,224.8281 C256.4688,224.9531 256.7031,225 257.0938,225 L265.0938,225 L265.0938,222.4219 C265.0938,221.9844 265.0625,221.8438 264.9844,221.6875 C264.8125,221.4375 264.5313,221.2813 264.25,221.2813 C263.9844,221.2813 263.7188,221.3906 263.5469,221.6406 C263.4375,221.7969 263.4063,221.9375 263.4063,222.4219 L263.4063,223.2969 L259.0469,223.2969 L259.0469,220.875 Z " fill="#000000"/><text fill="#000000" font-family="sans-serif" font-size="14" lengthAdjust="spacing" textLength="113" x="280.75" y="224.8467">&#1058;&#1080;&#1087;_&#1079;&#1072;&#1103;&#1074;&#1080;&#1090;&#1077;&#1083;&#1103;</text><line style="stroke:#181818;stroke-width:0.5;" x1="215.5" x2="426.5" y1="236" y2="236"/><text fill="#000000" font-family="sans-serif" font-size="14" lengthAdjust="spacing" textLength="23" x="220.5" y="252.9951">&#1060;&#1051;</text><text fill="#000000" font-family="sans-serif" font-size="14" lengthAdjust="spacing" textLength="26" x="220.5" y="269.292">&#1070;&#1051;</text><text fill="#000000" font-family="sans-serif" font-size="14" lengthAdjust="spacing" textLength="201" x="220.5" y="285.5889">&#1055;&#1088;&#1077;&#1076;&#1089;&#1090;&#1072;&#1074;&#1080;&#1090;&#1077;&#1083;&#1100; &#1079;&#1072;&#1103;&#1074;&#1080;&#1090;&#1077;&#1083;&#1103;</text><line style="stroke:#181818;stroke-width:0.5;" x1="215.5" x2="426.5" y1="292.8906" y2="292.8906"/></g><!--class ?????????--><g id="elem_&#1047;&#1072;&#1103;&#1074;&#1083;&#1077;&#1085;&#1080;&#1077;"><rect codeLine="27" fill="#F1F1F1" height="113.1875" id="&#1047;&#1072;&#1103;&#1074;&#1083;&#1077;&#1085;&#1080;&#1077;" rx="2.5" ry="2.5" style="stroke:#181818;stroke-width:0.5;" width="194" x="463" y="196"/><ellipse cx="515.75" cy="212" fill="#ADD1B2" rx="11" ry="11" style="stroke:#181818;stroke-width:1.0;"/><path d="M514.5469,212.875 L516,212.875 L516,212.9844 C516,213.3906 516.0313,213.5469 516.1094,213.7031 C516.2656,213.9531 516.5469,214.1094 516.8438,214.1094 C517.0938,214.1094 517.3594,213.9688 517.5156,213.75 C517.6406,213.5938 517.6719,213.4375 517.6719,212.9844 L517.6719,211.0625 C517.6719,210.9063 517.6719,210.8594 517.6563,210.7031 C517.5938,210.2344 517.2813,209.9219 516.8281,209.9219 C516.5781,209.9219 516.3125,210.0625 516.1406,210.2813 C516.0313,210.4531 516,210.6094 516,211.0625 L516,211.1875 L514.5469,211.1875 L514.5469,208.7813 L518.5313,208.7813 L518.5313,209.6406 C518.5313,210.0469 518.5625,210.2188 518.6406,210.375 C518.8125,210.625 519.0938,210.7813 519.375,210.7813 C519.6406,210.7813 519.9063,210.6406 520.0781,210.4219 C520.1875,210.25 520.2188,210.1094 520.2188,209.6406 L520.2188,207.0938 L512.5938,207.0938 C512.1563,207.0938 512.0313,207.1094 511.875,207.2031 C511.625,207.3594 511.4688,207.6563 511.4688,207.9375 C511.4688,208.2188 511.6094,208.4688 511.8281,208.6406 C511.9844,208.75 512.1719,208.7813 512.5938,208.7813 L512.8438,208.7813 L512.8438,215.2969 L512.5938,215.2969 C512.1875,215.2969 512.0313,215.3125 511.875,215.4219 C511.625,215.5938 511.4688,215.8594 511.4688,216.1563 C511.4688,216.4219 511.6094,216.6719 511.8281,216.8281 C511.9688,216.9531 512.2031,217 512.5938,217 L520.5938,217 L520.5938,214.4219 C520.5938,213.9844 520.5625,213.8438 520.4844,213.6875 C520.3125,213.4375 520.0313,213.2813 519.75,213.2813 C519.4844,213.2813 519.2188,213.3906 519.0469,213.6406 C518.9375,213.7969 518.9063,213.9375 518.9063,214.4219 L518.9063,215.2969 L514.5469,215.2969 L514.5469,212.875 Z " fill="#000000"/><text fill="#000000" font-family="sans-serif" font-size="14" lengthAdjust="spacing" textLength="80" x="536.25" y="216.8467">&#1047;&#1072;&#1103;&#1074;&#1083;&#1077;&#1085;&#1080;&#1077;</text><line style="stroke:#181818;stroke-width:0.5;" x1="464" x2="656" y1="228" y2="228"/><ellipse cx="474" cy="241.6484" fill="#000000" rx="3" ry="3" style="stroke:#000000;stroke-width:1.0;"/><text fill="#000000" font-family="sans-serif" font-size="14" lengthAdjust="spacing" textLength="96" x="483" y="244.9951">&#1044;&#1072;&#1090;&#1072;_&#1087;&#1086;&#1076;&#1072;&#1095;&#1080;</text><ellipse cx="474" cy="257.9453" fill="#000000" rx="3" ry="3" style="stroke:#000000;stroke-width:1.0;"/><text fill="#000000" font-family="sans-serif" font-size="14" lengthAdjust="spacing" textLength="152" x="483" y="261.292">&#1053;&#1086;&#1084;&#1077;&#1088; &#1088;&#1077;&#1075;&#1080;&#1089;&#1090;&#1088;&#1072;&#1094;&#1080;&#1080;</text><ellipse cx="474" cy="274.2422" fill="#000000" rx="3" ry="3" style="stroke:#000000;stroke-width:1.0;"/><text fill="#000000" font-family="sans-serif" font-size="14" lengthAdjust="spacing" textLength="127" x="483" y="277.5889">&#1044;&#1072;&#1090;&#1072; &#1088;&#1077;&#1079;&#1091;&#1083;&#1100;&#1090;&#1072;&#1090;&#1072;</text><ellipse cx="474" cy="290.5391" fill="#000000" rx="3" ry="3" style="stroke:#000000;stroke-width:1.0;"/><text fill="#000000" font-family="sans-serif" font-size="14" lengthAdjust="spacing" textLength="168" x="483" y="293.8857">&#1057;&#1088;&#1086;&#1082; &#1087;&#1088;&#1077;&#1076;&#1086;&#1089;&#1090;&#1072;&#1074;&#1083;&#1077;&#1085;&#1080;&#1103;</text><line style="stroke:#181818;stroke-width:0.5;" x1="464" x2="656" y1="301.1875" y2="301.1875"/></g><!--class ??????_??????--><g id="elem_&#1057;&#1087;&#1086;&#1089;&#1086;&#1073;_&#1087;&#1086;&#1076;&#1072;&#1095;&#1080;"><rect codeLine="34" fill="#F1F1F1" height="96.8906" id="&#1057;&#1087;&#1086;&#1089;&#1086;&#1073;_&#1087;&#1086;&#1076;&#1072;&#1095;&#1080;" rx="2.5" ry="2.5" style="stroke:#181818;stroke-width:0.5;" width="146" x="319" y="426"/><ellipse cx="334" cy="442" fill="#EB937F" rx="11" ry="11" style="stroke:#181818;stroke-width:1.0;"/><path d="M332.7969,442.875 L334.25,442.875 L334.25,442.9844 C334.25,443.3906 334.2813,443.5469 334.3594,443.7031 C334.5156,443.9531 334.7969,444.1094 335.0938,444.1094 C335.3438,444.1094 335.6094,443.9688 335.7656,443.75 C335.8906,443.5938 335.9219,443.4375 335.9219,442.9844 L335.9219,441.0625 C335.9219,440.9063 335.9219,440.8594 335.9063,440.7031 C335.8438,440.2344 335.5313,439.9219 335.0781,439.9219 C334.8281,439.9219 334.5625,440.0625 334.3906,440.2813 C334.2813,440.4531 334.25,440.6094 334.25,441.0625 L334.25,441.1875 L332.7969,441.1875 L332.7969,438.7813 L336.7813,438.7813 L336.7813,439.6406 C336.7813,440.0469 336.8125,440.2188 336.8906,440.375 C337.0625,440.625 337.3438,440.7813 337.625,440.7813 C337.8906,440.7813 338.1563,440.6406 338.3281,440.4219 C338.4375,440.25 338.4688,440.1094 338.4688,439.6406 L338.4688,437.0938 L330.8438,437.0938 C330.4063,437.0938 330.2813,437.1094 330.125,437.2031 C329.875,437.3594 329.7188,437.6563 329.7188,437.9375 C329.7188,438.2188 329.8594,438.4688 330.0781,438.6406 C330.2344,438.75 330.4219,438.7813 330.8438,438.7813 L331.0938,438.7813 L331.0938,445.2969 L330.8438,445.2969 C330.4375,445.2969 330.2813,445.3125 330.125,445.4219 C329.875,445.5938 329.7188,445.8594 329.7188,446.1563 C329.7188,446.4219 329.8594,446.6719 330.0781,446.8281 C330.2188,446.9531 330.4531,447 330.8438,447 L338.8438,447 L338.8438,444.4219 C338.8438,443.9844 338.8125,443.8438 338.7344,443.6875 C338.5625,443.4375 338.2813,443.2813 338,443.2813 C337.7344,443.2813 337.4688,443.3906 337.2969,443.6406 C337.1875,443.7969 337.1563,443.9375 337.1563,444.4219 L337.1563,445.2969 L332.7969,445.2969 L332.7969,442.875 Z " fill="#000000"/><text fill="#000000" font-family="sans-serif" font-size="14" lengthAdjust="spacing" textLength="114" x="348" y="446.8467">&#1057;&#1087;&#1086;&#1089;&#1086;&#1073;_&#1087;&#1086;&#1076;&#1072;&#1095;&#1080;</text><line style="stroke:#181818;stroke-width:0.5;" x1="320" x2="464" y1="458" y2="458"/><text fill="#000000" font-family="sans-serif" font-size="14" lengthAdjust="spacing" textLength="37" x="325" y="474.9951">&#1045;&#1055;&#1043;&#1059;</text><text fill="#000000" font-family="sans-serif" font-size="14" lengthAdjust="spacing" textLength="45" x="325" y="491.292">&#1051;&#1080;&#1095;&#1085;&#1086;</text><text fill="#000000" font-family="sans-serif" font-size="14" lengthAdjust="spacing" textLength="37" x="325" y="507.5889">&#1052;&#1060;&#1062;</text><line style="stroke:#181818;stroke-width:0.5;" x1="320" x2="464" y1="514.8906" y2="514.8906"/></g><!--class ??????_?????????_????--><g id="elem_&#1057;&#1090;&#1072;&#1090;&#1091;&#1089;_&#1079;&#1072;&#1103;&#1074;&#1083;&#1077;&#1085;&#1080;&#1103;_&#1045;&#1055;&#1043;&#1059;"><rect codeLine="40" fill="#F1F1F1" height="210.9688" id="&#1057;&#1090;&#1072;&#1090;&#1091;&#1089;_&#1079;&#1072;&#1103;&#1074;&#1083;&#1077;&#1085;&#1080;&#1103;_&#1045;&#1055;&#1043;&#1059;" rx="2.5" ry="2.5" style="stroke:#181818;stroke-width:0.5;" width="455" x="500.5" y="369"/><ellipse cx="632.75" cy="385" fill="#EB937F" rx="11" ry="11" style="stroke:#181818;stroke-width:1.0;"/><path d="M631.5469,385.875 L633,385.875 L633,385.9844 C633,386.3906 633.0313,386.5469 633.1094,386.7031 C633.2656,386.9531 633.5469,387.1094 633.8438,387.1094 C634.0938,387.1094 634.3594,386.9688 634.5156,386.75 C634.6406,386.5938 634.6719,386.4375 634.6719,385.9844 L634.6719,384.0625 C634.6719,383.9063 634.6719,383.8594 634.6563,383.7031 C634.5938,383.2344 634.2813,382.9219 633.8281,382.9219 C633.5781,382.9219 633.3125,383.0625 633.1406,383.2813 C633.0313,383.4531 633,383.6094 633,384.0625 L633,384.1875 L631.5469,384.1875 L631.5469,381.7813 L635.5313,381.7813 L635.5313,382.6406 C635.5313,383.0469 635.5625,383.2188 635.6406,383.375 C635.8125,383.625 636.0938,383.7813 636.375,383.7813 C636.6406,383.7813 636.9063,383.6406 637.0781,383.4219 C637.1875,383.25 637.2188,383.1094 637.2188,382.6406 L637.2188,380.0938 L629.5938,380.0938 C629.1563,380.0938 629.0313,380.1094 628.875,380.2031 C628.625,380.3594 628.4688,380.6563 628.4688,380.9375 C628.4688,381.2188 628.6094,381.4688 628.8281,381.6406 C628.9844,381.75 629.1719,381.7813 629.5938,381.7813 L629.8438,381.7813 L629.8438,388.2969 L629.5938,388.2969 C629.1875,388.2969 629.0313,388.3125 628.875,388.4219 C628.625,388.5938 628.4688,388.8594 628.4688,389.1563 C628.4688,389.4219 628.6094,389.6719 628.8281,389.8281 C628.9688,389.9531 629.2031,390 629.5938,390 L637.5938,390 L637.5938,387.4219 C637.5938,386.9844 637.5625,386.8438 637.4844,386.6875 C637.3125,386.4375 637.0313,386.2813 636.75,386.2813 C636.4844,386.2813 636.2188,386.3906 636.0469,386.6406 C635.9375,386.7969 635.9063,386.9375 635.9063,387.4219 L635.9063,388.2969 L631.5469,388.2969 L631.5469,385.875 Z " fill="#000000"/><text fill="#000000" font-family="sans-serif" font-size="14" lengthAdjust="spacing" textLength="182" x="653.25" y="389.8467">&#1057;&#1090;&#1072;&#1090;&#1091;&#1089;_&#1079;&#1072;&#1103;&#1074;&#1083;&#1077;&#1085;&#1080;&#1103;_&#1045;&#1055;&#1043;&#1059;</text><line style="stroke:#181818;stroke-width:0.5;" x1="501.5" x2="954.5" y1="401" y2="401"/><ellipse cx="511.5" cy="414.6484" fill="#000000" rx="3" ry="3" style="stroke:#000000;stroke-width:1.0;"/><text fill="#000000" font-family="sans-serif" font-size="14" lengthAdjust="spacing" textLength="274" x="520.5" y="417.9951">&#1047;&#1072;&#1103;&#1074;&#1083;&#1077;&#1085;&#1080;&#1077; &#1086;&#1090;&#1087;&#1088;&#1072;&#1074;&#1083;&#1077;&#1085;&#1086; &#1074; &#1074;&#1077;&#1076;&#1086;&#1084;&#1089;&#1090;&#1074;&#1086;</text><ellipse cx="511.5" cy="430.9453" fill="#000000" rx="3" ry="3" style="stroke:#000000;stroke-width:1.0;"/><text fill="#000000" font-family="sans-serif" font-size="14" lengthAdjust="spacing" textLength="252" x="520.5" y="434.292">&#1047;&#1072;&#1103;&#1074;&#1083;&#1077;&#1085;&#1080;&#1077; &#1087;&#1086;&#1083;&#1091;&#1095;&#1077;&#1085;&#1086; &#1074;&#1077;&#1076;&#1086;&#1084;&#1089;&#1090;&#1074;&#1086;&#1084;</text><ellipse cx="511.5" cy="447.2422" fill="#000000" rx="3" ry="3" style="stroke:#000000;stroke-width:1.0;"/><text fill="#000000" font-family="sans-serif" font-size="14" lengthAdjust="spacing" textLength="249" x="520.5" y="450.5889">&#1047;&#1072;&#1103;&#1074;&#1083;&#1077;&#1085;&#1080;&#1077; &#1090;&#1088;&#1077;&#1073;&#1091;&#1077;&#1090; &#1080;&#1089;&#1087;&#1088;&#1072;&#1074;&#1083;&#1077;&#1085;&#1080;&#1103;</text><ellipse cx="511.5" cy="463.5391" fill="#000000" rx="3" ry="3" style="stroke:#000000;stroke-width:1.0;"/><text fill="#000000" font-family="sans-serif" font-size="14" lengthAdjust="spacing" textLength="119" x="520.5" y="466.8857">&#1054;&#1090;&#1082;&#1072;&#1079; &#1074; &#1087;&#1088;&#1080;&#1077;&#1084;&#1077;</text><ellipse cx="511.5" cy="479.8359" fill="#000000" rx="3" ry="3" style="stroke:#000000;stroke-width:1.0;"/><text fill="#000000" font-family="sans-serif" font-size="14" lengthAdjust="spacing" textLength="226" x="520.5" y="483.1826">&#1047;&#1072;&#1103;&#1074;&#1083;&#1077;&#1085;&#1080;&#1077; &#1079;&#1072;&#1088;&#1077;&#1075;&#1080;&#1089;&#1090;&#1088;&#1080;&#1088;&#1086;&#1074;&#1072;&#1085;&#1086;</text><ellipse cx="511.5" cy="496.1328" fill="#000000" rx="3" ry="3" style="stroke:#000000;stroke-width:1.0;"/><text fill="#000000" font-family="sans-serif" font-size="14" lengthAdjust="spacing" textLength="268" x="520.5" y="499.4795">&#1054;&#1090;&#1082;&#1072;&#1079;&#1072;&#1085;&#1086; &#1074; &#1087;&#1088;&#1077;&#1076;&#1086;&#1089;&#1090;&#1072;&#1074;&#1083;&#1077;&#1085;&#1080;&#1080; &#1091;&#1089;&#1083;&#1091;&#1075;&#1080;</text><ellipse cx="511.5" cy="512.4297" fill="#000000" rx="3" ry="3" style="stroke:#000000;stroke-width:1.0;"/><text fill="#000000" font-family="sans-serif" font-size="14" lengthAdjust="spacing" textLength="333" x="520.5" y="515.7764">&#1055;&#1088;&#1080;&#1085;&#1103;&#1090;&#1086; &#1088;&#1077;&#1096;&#1077;&#1085;&#1080;&#1077; &#1086; &#1087;&#1088;&#1077;&#1076;&#1086;&#1089;&#1090;&#1072;&#1074;&#1083;&#1077;&#1085;&#1080;&#1080; &#1091;&#1089;&#1083;&#1091;&#1075;&#1080;</text><ellipse cx="511.5" cy="528.7266" fill="#000000" rx="3" ry="3" style="stroke:#000000;stroke-width:1.0;"/><text fill="#000000" font-family="sans-serif" font-size="14" lengthAdjust="spacing" textLength="315" x="520.5" y="532.0732">&#1056;&#1077;&#1079;&#1091;&#1083;&#1100;&#1090;&#1072;&#1090; &#1074;&#1099;&#1076;&#1072;&#1085; &#1079;&#1072;&#1103;&#1074;&#1080;&#1090;&#1077;&#1083;&#1102; &#1074; &#1074;&#1077;&#1076;&#1086;&#1084;&#1089;&#1090;&#1074;&#1077;</text><ellipse cx="511.5" cy="545.0234" fill="#000000" rx="3" ry="3" style="stroke:#000000;stroke-width:1.0;"/><text fill="#000000" font-family="sans-serif" font-size="14" lengthAdjust="spacing" textLength="429" x="520.5" y="548.3701">&#1056;&#1077;&#1079;&#1091;&#1083;&#1100;&#1090;&#1072;&#1090; &#1087;&#1086;&#1083;&#1091;&#1095;&#1077;&#1085; &#1074; &#1052;&#1060;&#1062;. &#1054;&#1078;&#1080;&#1076;&#1072;&#1085;&#1080;&#1077; &#1074;&#1099;&#1076;&#1072;&#1095;&#1080; &#1079;&#1072;&#1103;&#1074;&#1080;&#1090;&#1077;&#1083;&#1102;</text><ellipse cx="511.5" cy="561.3203" fill="#000000" rx="3" ry="3" style="stroke:#000000;stroke-width:1.0;"/><text fill="#000000" font-family="sans-serif" font-size="14" lengthAdjust="spacing" textLength="269" x="520.5" y="564.667">&#1056;&#1077;&#1079;&#1091;&#1083;&#1100;&#1090;&#1072;&#1090; &#1074;&#1099;&#1076;&#1072;&#1085; &#1079;&#1072;&#1103;&#1074;&#1080;&#1090;&#1077;&#1083;&#1102; &#1074; &#1052;&#1060;&#1062;</text><line style="stroke:#181818;stroke-width:0.5;" x1="501.5" x2="954.5" y1="571.9688" y2="571.9688"/></g><!--class ???--><g id="elem_&#1062;&#1040;&#1056;"><rect codeLine="53" fill="#F1F1F1" height="96.8906" id="&#1062;&#1040;&#1056;" rx="2.5" ry="2.5" style="stroke:#181818;stroke-width:0.5;" width="113" x="503.5" y="23"/><ellipse cx="541" cy="39" fill="#ADD1B2" rx="11" ry="11" style="stroke:#181818;stroke-width:1.0;"/><path d="M539.7969,39.875 L541.25,39.875 L541.25,39.9844 C541.25,40.3906 541.2813,40.5469 541.3594,40.7031 C541.5156,40.9531 541.7969,41.1094 542.0938,41.1094 C542.3438,41.1094 542.6094,40.9688 542.7656,40.75 C542.8906,40.5938 542.9219,40.4375 542.9219,39.9844 L542.9219,38.0625 C542.9219,37.9063 542.9219,37.8594 542.9063,37.7031 C542.8438,37.2344 542.5313,36.9219 542.0781,36.9219 C541.8281,36.9219 541.5625,37.0625 541.3906,37.2813 C541.2813,37.4531 541.25,37.6094 541.25,38.0625 L541.25,38.1875 L539.7969,38.1875 L539.7969,35.7813 L543.7813,35.7813 L543.7813,36.6406 C543.7813,37.0469 543.8125,37.2188 543.8906,37.375 C544.0625,37.625 544.3438,37.7813 544.625,37.7813 C544.8906,37.7813 545.1563,37.6406 545.3281,37.4219 C545.4375,37.25 545.4688,37.1094 545.4688,36.6406 L545.4688,34.0938 L537.8438,34.0938 C537.4063,34.0938 537.2813,34.1094 537.125,34.2031 C536.875,34.3594 536.7188,34.6563 536.7188,34.9375 C536.7188,35.2188 536.8594,35.4688 537.0781,35.6406 C537.2344,35.75 537.4219,35.7813 537.8438,35.7813 L538.0938,35.7813 L538.0938,42.2969 L537.8438,42.2969 C537.4375,42.2969 537.2813,42.3125 537.125,42.4219 C536.875,42.5938 536.7188,42.8594 536.7188,43.1563 C536.7188,43.4219 536.8594,43.6719 537.0781,43.8281 C537.2188,43.9531 537.4531,44 537.8438,44 L545.8438,44 L545.8438,41.4219 C545.8438,40.9844 545.8125,40.8438 545.7344,40.6875 C545.5625,40.4375 545.2813,40.2813 545,40.2813 C544.7344,40.2813 544.4688,40.3906 544.2969,40.6406 C544.1875,40.7969 544.1563,40.9375 544.1563,41.4219 L544.1563,42.2969 L539.7969,42.2969 L539.7969,39.875 Z " fill="#000000"/><text fill="#000000" font-family="sans-serif" font-size="14" lengthAdjust="spacing" textLength="31" x="560" y="43.8467">&#1062;&#1040;&#1056;</text><line style="stroke:#181818;stroke-width:0.5;" x1="504.5" x2="615.5" y1="55" y2="55"/><ellipse cx="514.5" cy="68.6484" fill="#000000" rx="3" ry="3" style="stroke:#000000;stroke-width:1.0;"/><text fill="#000000" font-family="sans-serif" font-size="14" lengthAdjust="spacing" textLength="49" x="523.5" y="71.9951">&#1053;&#1086;&#1084;&#1077;&#1088;</text><ellipse cx="514.5" cy="84.9453" fill="#000000" rx="3" ry="3" style="stroke:#000000;stroke-width:1.0;"/><text fill="#000000" font-family="sans-serif" font-size="14" lengthAdjust="spacing" textLength="87" x="523.5" y="88.292">&#1053;&#1072;&#1079;&#1085;&#1072;&#1095;&#1077;&#1085;&#1080;&#1077;</text><ellipse cx="514.5" cy="101.2422" fill="#000000" rx="3" ry="3" style="stroke:#000000;stroke-width:1.0;"/><text fill="#000000" font-family="sans-serif" font-size="14" lengthAdjust="spacing" textLength="55" x="523.5" y="104.5889">&#1042;&#1077;&#1088;&#1089;&#1080;&#1103;</text><line style="stroke:#181818;stroke-width:0.5;" x1="504.5" x2="615.5" y1="111.8906" y2="111.8906"/></g><!--link ????????? to ???_?????????--><g id="link_&#1047;&#1072;&#1103;&#1074;&#1080;&#1090;&#1077;&#1083;&#1100;_&#1058;&#1080;&#1087;_&#1079;&#1072;&#1103;&#1074;&#1080;&#1090;&#1077;&#1083;&#1103;"><path codeLine="62" d="M343,136.079 C343,158.414 343,177.05 343,197.886 " fill="none" id="&#1047;&#1072;&#1103;&#1074;&#1080;&#1090;&#1077;&#1083;&#1100;-to-&#1058;&#1080;&#1087;_&#1079;&#1072;&#1103;&#1074;&#1080;&#1090;&#1077;&#1083;&#1103;" style="stroke:#181818;stroke-width:1.0;"/><polygon fill="#181818" points="343,203.886,347,194.886,343,198.886,339,194.886,343,203.886" style="stroke:#181818;stroke-width:1.0;"/><text fill="#000000" font-family="sans-serif" font-size="13" lengthAdjust="spacing" textLength="7" x="334.9016" y="156.4597">*</text><text fill="#000000" font-family="sans-serif" font-size="13" lengthAdjust="spacing" textLength="8" x="337.5313" y="193.0789">1</text></g><!--link ????????? to ?????????--><g id="link_&#1047;&#1072;&#1103;&#1074;&#1080;&#1090;&#1077;&#1083;&#1100;_&#1047;&#1072;&#1103;&#1074;&#1083;&#1077;&#1085;&#1080;&#1077;"><path codeLine="63" d="M433.5,136.126 C433.5,168.125 433.5,200 433.5,200 C433.5,200 439.854,200 456.84,200 " fill="none" id="&#1047;&#1072;&#1103;&#1074;&#1080;&#1090;&#1077;&#1083;&#1100;-to-&#1047;&#1072;&#1103;&#1074;&#1083;&#1077;&#1085;&#1080;&#1077;" style="stroke:#181818;stroke-width:1.0;"/><polygon fill="#181818" points="462.84,200,453.84,196,457.84,200,453.84,204,462.84,200" style="stroke:#181818;stroke-width:1.0;"/><text fill="#000000" font-family="sans-serif" font-size="13" lengthAdjust="spacing" textLength="8" x="434.8078" y="156.5121">1</text><text fill="#000000" font-family="sans-serif" font-size="13" lengthAdjust="spacing" textLength="7" x="448.1332" y="192.4711">*</text></g><!--link ????????? to ??????_?????????_????--><g id="link_&#1047;&#1072;&#1103;&#1074;&#1083;&#1077;&#1085;&#1080;&#1077;_&#1057;&#1090;&#1072;&#1090;&#1091;&#1089;_&#1079;&#1072;&#1103;&#1074;&#1083;&#1077;&#1085;&#1080;&#1103;_&#1045;&#1055;&#1043;&#1059;"><path codeLine="64" d="M578.75,309.094 C578.75,327.336 578.75,342.182 578.75,362.785 " fill="none" id="&#1047;&#1072;&#1103;&#1074;&#1083;&#1077;&#1085;&#1080;&#1077;-to-&#1057;&#1090;&#1072;&#1090;&#1091;&#1089;_&#1079;&#1072;&#1103;&#1074;&#1083;&#1077;&#1085;&#1080;&#1103;_&#1045;&#1055;&#1043;&#1059;" style="stroke:#181818;stroke-width:1.0;"/><polygon fill="#181818" points="578.75,368.785,582.75,359.785,578.75,363.785,574.75,359.785,578.75,368.785" style="stroke:#181818;stroke-width:1.0;"/><text fill="#000000" font-family="sans-serif" font-size="13" lengthAdjust="spacing" textLength="7" x="573.7039" y="329.3694">*</text><text fill="#000000" font-family="sans-serif" font-size="13" lengthAdjust="spacing" textLength="8" x="559.9746" y="357.8972">1</text></g><!--link ??? to ?????????--><g id="link_&#1062;&#1040;&#1056;_&#1047;&#1072;&#1103;&#1074;&#1083;&#1077;&#1085;&#1080;&#1077;"><path codeLine="65" d="M560,120.005 C560,143.356 560,165.501 560,189.834 " fill="none" id="&#1062;&#1040;&#1056;-to-&#1047;&#1072;&#1103;&#1074;&#1083;&#1077;&#1085;&#1080;&#1077;" style="stroke:#181818;stroke-width:1.0;"/><polygon fill="#181818" points="560,195.834,564,186.834,560,190.834,556,186.834,560,195.834" style="stroke:#181818;stroke-width:1.0;"/><text fill="#000000" font-family="sans-serif" font-size="13" lengthAdjust="spacing" textLength="8" x="551.4375" y="139.9646">1</text><text fill="#000000" font-family="sans-serif" font-size="13" lengthAdjust="spacing" textLength="7" x="552.5734" y="185.0773">*</text></g><!--link ????????? to ??????_??????--><g id="link_&#1047;&#1072;&#1103;&#1074;&#1083;&#1077;&#1085;&#1080;&#1077;_&#1057;&#1087;&#1086;&#1089;&#1086;&#1073;_&#1087;&#1086;&#1076;&#1072;&#1095;&#1080;"><path codeLine="66" d="M462.888,305 C455.737,305 451.25,305 451.25,305 C451.25,305 451.25,369.841 451.25,419.928 " fill="none" id="&#1047;&#1072;&#1103;&#1074;&#1083;&#1077;&#1085;&#1080;&#1077;-to-&#1057;&#1087;&#1086;&#1089;&#1086;&#1073;_&#1087;&#1086;&#1076;&#1072;&#1095;&#1080;" style="stroke:#181818;stroke-width:1.0;"/><polygon fill="#181818" points="451.25,425.928,455.25,416.928,451.25,420.928,447.25,416.928,451.25,425.928" style="stroke:#181818;stroke-width:1.0;"/><text fill="#000000" font-family="sans-serif" font-size="13" lengthAdjust="spacing" textLength="7" x="447.8705" y="305.6507">*</text><text fill="#000000" font-family="sans-serif" font-size="13" lengthAdjust="spacing" textLength="8" x="451.3648" y="414.7771">1</text></g><!--link ???????????? to ???_????????????--><g id="link_&#1055;&#1086;&#1083;&#1100;&#1079;&#1086;&#1074;&#1072;&#1090;&#1077;&#1083;&#1100;_&#1058;&#1080;&#1087;_&#1087;&#1086;&#1083;&#1100;&#1079;&#1086;&#1074;&#1072;&#1090;&#1077;&#1083;&#1103;"><path codeLine="67" d="M93,112.12 C93,141.825 93,175.957 93,205.703 " fill="none" id="&#1055;&#1086;&#1083;&#1100;&#1079;&#1086;&#1074;&#1072;&#1090;&#1077;&#1083;&#1100;-to-&#1058;&#1080;&#1087;_&#1087;&#1086;&#1083;&#1100;&#1079;&#1086;&#1074;&#1072;&#1090;&#1077;&#1083;&#1103;" style="stroke:#181818;stroke-width:1.0;"/><polygon fill="#181818" points="93,211.703,97,202.703,93,206.703,89,202.703,93,211.703" style="stroke:#181818;stroke-width:1.0;"/><text fill="#000000" font-family="sans-serif" font-size="13" lengthAdjust="spacing" textLength="7" x="85.4641" y="131.5965">*</text><text fill="#000000" font-family="sans-serif" font-size="13" lengthAdjust="spacing" textLength="8" x="84.3375" y="200.8153">1</text></g><!--SRC=[dLLBRXD14DtFALfUHWfIBi2ESqHPHCA2E54mYmWX-ICH91064aH4SEm0oZ9oZ0StZcTyXTStubLrsndRFVoiiQQxgglgrQkgdYUFghM3dSETFVEuMjkj7nticlt3-iFz97bGgrVhHmOzvBXrhp7cUuY1Qo6LlNcM6BE1CqnTHrTlSOftoNCnVBfdy0KMistCejOTCQR525CUos1TqxLSG_MvQuYo9AmFu95zfBX3fIt5T8OkkhhwH8SzNLtW1FqWlMPCInJM7IDrJKou-samm8WA2jRI6Q-4z8bymxcyhlsh9xRqm9JegGXltJoMpYrLf0HfIETKinzuBaVS7CEgeilzb30RHYD-Bz3uWlQsQEsFZ5rRW8X0_dhWafeS4uEPnyq2p94797EOmiEbe21JEMwM02aF7qZo2RxAybmvpP3BvZCPkYhuyF5TspNl65t4sfwx2Uclqq80BKLxXp4t6FBn-5b-oM2emQCEV5UsfUh1UDKIqn9R9JZ53PbCNSi8vojOR6Y-2tgQK3vMR3DjjLGALePAg5WkfDNQiFq3amMdNhPm7IqSh16I9LLngWvwYYDp7HarxGhtii3iFthhhpOL0RbNqXJ8rjlzJRHAQPcdfIgfgJRIFSCP_g5pEvZZ3a6b4oDX_njgeN7zZ5xnqkg7nboCNzX9KJB54EXK-NivGTR25F4NkRSg6nMpkNdVLBOgvLTDr70h6DB1UaibaIvR2lMNavY4l7yVpVmvNCdbaPH-P6B4b7nIVW40]--></g></svg>