<?xml version="1.0" encoding="us-ascii" standalone="no"?><svg xmlns="http://www.w3.org/2000/svg" xmlns:xlink="http://www.w3.org/1999/xlink" contentStyleType="text/css" height="661px" preserveAspectRatio="none" style="width:1367px;height:661px;background:#FFFFFF;" version="1.1" viewBox="0 0 1367 661" width="1367px" zoomAndPan="magnify"><defs/><g><rect fill="none" height="235.8672" style="stroke:#000000;stroke-width:1.5;" width="1350" x="10" y="328.2266"/><line style="stroke:#181818;stroke-width:0.5;stroke-dasharray:5.0,5.0;" x1="76" x2="76" y1="81.2969" y2="581.0938"/><line style="stroke:#181818;stroke-width:0.5;stroke-dasharray:5.0,5.0;" x1="431.5" x2="431.5" y1="81.2969" y2="581.0938"/><line style="stroke:#181818;stroke-width:0.5;stroke-dasharray:5.0,5.0;" x1="801" x2="801" y1="81.2969" y2="581.0938"/><line style="stroke:#181818;stroke-width:0.5;stroke-dasharray:5.0,5.0;" x1="1127" x2="1127" y1="81.2969" y2="581.0938"/><line style="stroke:#181818;stroke-width:0.5;stroke-dasharray:5.0,5.0;" x1="1278" x2="1278" y1="81.2969" y2="581.0938"/><text fill="#000000" font-family="sans-serif" font-size="14" lengthAdjust="spacing" textLength="107" x="20" y="77.9951">&#1055;&#1086;&#1083;&#1100;&#1079;&#1086;&#1074;&#1072;&#1090;&#1077;&#1083;&#1100;</text><ellipse cx="76.5" cy="13.5" fill="#E2E2F0" rx="8" ry="8" style="stroke:#181818;stroke-width:0.5;"/><path d="M76.5,21.5 L76.5,48.5 M63.5,29.5 L89.5,29.5 M76.5,48.5 L63.5,63.5 M76.5,48.5 L89.5,63.5 " fill="none" style="stroke:#181818;stroke-width:0.5;"/><text fill="#000000" font-family="sans-serif" font-size="14" lengthAdjust="spacing" textLength="107" x="20" y="593.0889">&#1055;&#1086;&#1083;&#1100;&#1079;&#1086;&#1074;&#1072;&#1090;&#1077;&#1083;&#1100;</text><ellipse cx="76.5" cy="604.8906" fill="#E2E2F0" rx="8" ry="8" style="stroke:#181818;stroke-width:0.5;"/><path d="M76.5,612.8906 L76.5,639.8906 M63.5,620.8906 L89.5,620.8906 M76.5,639.8906 L63.5,654.8906 M76.5,639.8906 L89.5,654.8906 " fill="none" style="stroke:#181818;stroke-width:0.5;"/><rect fill="#E2E2F0" height="30.2969" rx="2.5" ry="2.5" style="stroke:#181818;stroke-width:0.5;" width="136" x="363.5" y="50"/><text fill="#000000" font-family="sans-serif" font-size="14" lengthAdjust="spacing" textLength="122" x="370.5" y="69.9951">&#1060;&#1088;&#1086;&#1085;&#1090;_&#1084;&#1086;&#1085;&#1086;&#1083;&#1080;&#1090;</text><rect fill="#E2E2F0" height="30.2969" rx="2.5" ry="2.5" style="stroke:#181818;stroke-width:0.5;" width="136" x="363.5" y="580.0938"/><text fill="#000000" font-family="sans-serif" font-size="14" lengthAdjust="spacing" textLength="122" x="370.5" y="600.0889">&#1060;&#1088;&#1086;&#1085;&#1090;_&#1084;&#1086;&#1085;&#1086;&#1083;&#1080;&#1090;</text><rect fill="#E2E2F0" height="30.2969" rx="2.5" ry="2.5" style="stroke:#181818;stroke-width:0.5;" width="113" x="745" y="50"/><text fill="#000000" font-family="sans-serif" font-size="14" lengthAdjust="spacing" textLength="99" x="752" y="69.9951">&#1041;&#1101;&#1082;_&#1084;&#1086;&#1085;&#1086;&#1083;&#1080;&#1090;</text><rect fill="#E2E2F0" height="30.2969" rx="2.5" ry="2.5" style="stroke:#181818;stroke-width:0.5;" width="113" x="745" y="580.0938"/><text fill="#000000" font-family="sans-serif" font-size="14" lengthAdjust="spacing" textLength="99" x="752" y="600.0889">&#1041;&#1101;&#1082;_&#1084;&#1086;&#1085;&#1086;&#1083;&#1080;&#1090;</text><rect fill="#E2E2F0" height="30.2969" rx="2.5" ry="2.5" style="stroke:#181818;stroke-width:0.5;" width="117" x="1069" y="50"/><text fill="#000000" font-family="sans-serif" font-size="14" lengthAdjust="spacing" textLength="103" x="1076" y="69.9951">&#1057;&#1077;&#1088;&#1074;&#1080;&#1089;_&#1091;&#1089;&#1083;&#1091;&#1075;</text><rect fill="#E2E2F0" height="30.2969" rx="2.5" ry="2.5" style="stroke:#181818;stroke-width:0.5;" width="117" x="1069" y="580.0938"/><text fill="#000000" font-family="sans-serif" font-size="14" lengthAdjust="spacing" textLength="103" x="1076" y="600.0889">&#1057;&#1077;&#1088;&#1074;&#1080;&#1089;_&#1091;&#1089;&#1083;&#1091;&#1075;</text><rect fill="#E2E2F0" height="30.2969" rx="2.5" ry="2.5" style="stroke:#181818;stroke-width:0.5;" width="143" x="1207" y="50"/><text fill="#000000" font-family="sans-serif" font-size="14" lengthAdjust="spacing" textLength="129" x="1214" y="69.9951">&#1041;&#1044;_&#1089;&#1077;&#1088;&#1074;&#1080;&#1089;_&#1091;&#1089;&#1083;&#1091;&#1075;</text><rect fill="#E2E2F0" height="30.2969" rx="2.5" ry="2.5" style="stroke:#181818;stroke-width:0.5;" width="143" x="1207" y="580.0938"/><text fill="#000000" font-family="sans-serif" font-size="14" lengthAdjust="spacing" textLength="129" x="1214" y="600.0889">&#1041;&#1044;_&#1089;&#1077;&#1088;&#1074;&#1080;&#1089;_&#1091;&#1089;&#1083;&#1091;&#1075;</text><polygon fill="#181818" points="419.5,108.4297,429.5,112.4297,419.5,116.4297,423.5,112.4297" style="stroke:#181818;stroke-width:1.0;"/><line style="stroke:#181818;stroke-width:1.0;" x1="76.5" x2="425.5" y1="112.4297" y2="112.4297"/><text fill="#000000" font-family="sans-serif" font-size="13" lengthAdjust="spacing" textLength="203" x="83.5" y="107.3638">&#1047;&#1072;&#1075;&#1088;&#1091;&#1079;&#1080;&#1090;&#1100; &#1062;&#1040;&#1056; &#1074; &#1092;&#1086;&#1088;&#1084;&#1072;&#1090;&#1077; XML</text><polygon fill="#181818" points="87.5,137.5625,77.5,141.5625,87.5,145.5625,83.5,141.5625" style="stroke:#181818;stroke-width:1.0;"/><line style="stroke:#181818;stroke-width:1.0;" x1="81.5" x2="430.5" y1="141.5625" y2="141.5625"/><text fill="#000000" font-family="sans-serif" font-size="13" lengthAdjust="spacing" textLength="187" x="93.5" y="136.4966">&#1054;&#1090;&#1082;&#1088;&#1099;&#1074;&#1072;&#1077;&#1090;&#1089;&#1103; &#1087;&#1088;&#1086;&#1074;&#1086;&#1076;&#1085;&#1080;&#1082; &#1054;&#1057;</text><line style="stroke:#181818;stroke-width:1.0;" x1="76.5" x2="118.5" y1="170.6953" y2="170.6953"/><line style="stroke:#181818;stroke-width:1.0;" x1="118.5" x2="118.5" y1="170.6953" y2="183.6953"/><line style="stroke:#181818;stroke-width:1.0;" x1="77.5" x2="118.5" y1="183.6953" y2="183.6953"/><polygon fill="#181818" points="87.5,179.6953,77.5,183.6953,87.5,187.6953,83.5,183.6953" style="stroke:#181818;stroke-width:1.0;"/><text fill="#000000" font-family="sans-serif" font-size="13" lengthAdjust="spacing" textLength="86" x="83.5" y="165.6294">&#1042;&#1099;&#1073;&#1088;&#1072;&#1090;&#1100; XML</text><polygon fill="#181818" points="419.5,208.8281,429.5,212.8281,419.5,216.8281,423.5,212.8281" style="stroke:#181818;stroke-width:1.0;"/><line style="stroke:#181818;stroke-width:1.0;" x1="76.5" x2="425.5" y1="212.8281" y2="212.8281"/><text fill="#000000" font-family="sans-serif" font-size="13" lengthAdjust="spacing" textLength="198" x="83.5" y="207.7622">&#1055;&#1086;&#1076;&#1090;&#1074;&#1077;&#1088;&#1076;&#1080;&#1090;&#1100; &#1074;&#1099;&#1073;&#1088;&#1072;&#1085;&#1085;&#1099;&#1081; XML</text><polygon fill="#181818" points="789.5,237.9609,799.5,241.9609,789.5,245.9609,793.5,241.9609" style="stroke:#181818;stroke-width:1.0;"/><line style="stroke:#181818;stroke-width:1.0;" x1="431.5" x2="795.5" y1="241.9609" y2="241.9609"/><text fill="#000000" font-family="sans-serif" font-size="13" lengthAdjust="spacing" textLength="179" x="438.5" y="236.895">&#1054;&#1090;&#1087;&#1088;&#1072;&#1074;&#1080;&#1090;&#1100; &#1074;&#1099;&#1073;&#1088;&#1072;&#1085;&#1085;&#1099;&#1081; XML</text><polygon fill="#181818" points="1115.5,267.0938,1125.5,271.0938,1115.5,275.0938,1119.5,271.0938" style="stroke:#181818;stroke-width:1.0;"/><line style="stroke:#181818;stroke-width:1.0;" x1="801.5" x2="1121.5" y1="271.0938" y2="271.0938"/><text fill="#000000" font-family="sans-serif" font-size="13" lengthAdjust="spacing" textLength="179" x="808.5" y="266.0278">&#1054;&#1090;&#1087;&#1088;&#1072;&#1074;&#1080;&#1090;&#1100; &#1074;&#1099;&#1073;&#1088;&#1072;&#1085;&#1085;&#1099;&#1081; XML</text><line style="stroke:#181818;stroke-width:1.0;" x1="1127.5" x2="1169.5" y1="300.2266" y2="300.2266"/><line style="stroke:#181818;stroke-width:1.0;" x1="1169.5" x2="1169.5" y1="300.2266" y2="313.2266"/><line style="stroke:#181818;stroke-width:1.0;" x1="1128.5" x2="1169.5" y1="313.2266" y2="313.2266"/><polygon fill="#181818" points="1138.5,309.2266,1128.5,313.2266,1138.5,317.2266,1134.5,313.2266" style="stroke:#181818;stroke-width:1.0;"/><text fill="#000000" font-family="sans-serif" font-size="13" lengthAdjust="spacing" textLength="103" x="1134.5" y="295.1606">&#1054;&#1073;&#1088;&#1072;&#1073;&#1086;&#1090;&#1082;&#1072; XML</text><path d="M10,328.2266 L76,328.2266 L76,335.3594 L66,345.3594 L10,345.3594 L10,328.2266 " fill="#EEEEEE" style="stroke:#000000;stroke-width:1.5;"/><rect fill="none" height="235.8672" style="stroke:#000000;stroke-width:1.5;" width="1350" x="10" y="328.2266"/><text fill="#000000" font-family="sans-serif" font-size="13" font-weight="bold" lengthAdjust="spacing" textLength="21" x="25" y="341.2935">alt</text><text fill="#000000" font-family="sans-serif" font-size="11" font-weight="bold" lengthAdjust="spacing" textLength="139" x="91" y="340.437">[&#1059;&#1089;&#1087;&#1077;&#1096;&#1085;&#1072;&#1103; &#1079;&#1072;&#1075;&#1088;&#1091;&#1079;&#1082;&#1072;]</text><polygon fill="#181818" points="1266.5,362.4922,1276.5,366.4922,1266.5,370.4922,1270.5,366.4922" style="stroke:#181818;stroke-width:1.0;"/><line style="stroke:#181818;stroke-width:1.0;" x1="1127.5" x2="1272.5" y1="366.4922" y2="366.4922"/><text fill="#000000" font-family="sans-serif" font-size="13" lengthAdjust="spacing" textLength="127" x="1134.5" y="361.4263">&#1047;&#1072;&#1075;&#1088;&#1091;&#1079;&#1082;&#1072; &#1062;&#1040;&#1056; &#1074; &#1041;&#1044;</text><polygon fill="#181818" points="812.5,391.625,802.5,395.625,812.5,399.625,808.5,395.625" style="stroke:#181818;stroke-width:1.0;"/><line style="stroke:#181818;stroke-width:1.0;" x1="806.5" x2="1126.5" y1="395.625" y2="395.625"/><text fill="#000000" font-family="sans-serif" font-size="13" lengthAdjust="spacing" textLength="143" x="818.5" y="390.5591">&#1047;&#1072;&#1075;&#1088;&#1091;&#1079;&#1082;&#1072; &#1062;&#1040;&#1056; 200 OK</text><polygon fill="#181818" points="442.5,420.7578,432.5,424.7578,442.5,428.7578,438.5,424.7578" style="stroke:#181818;stroke-width:1.0;"/><line style="stroke:#181818;stroke-width:1.0;" x1="436.5" x2="800.5" y1="424.7578" y2="424.7578"/><text fill="#000000" font-family="sans-serif" font-size="13" lengthAdjust="spacing" textLength="220" x="448.5" y="419.6919">&#1042;&#1099;&#1074;&#1077;&#1089;&#1090;&#1080; &#1091;&#1089;&#1087;&#1077;&#1096;&#1085;&#1072;&#1103; &#1079;&#1072;&#1075;&#1088;&#1091;&#1079;&#1082;&#1072; &#1062;&#1040;&#1056;</text><polygon fill="#181818" points="87.5,449.8906,77.5,453.8906,87.5,457.8906,83.5,453.8906" style="stroke:#181818;stroke-width:1.0;"/><line style="stroke:#181818;stroke-width:1.0;" x1="81.5" x2="430.5" y1="453.8906" y2="453.8906"/><text fill="#000000" font-family="sans-serif" font-size="13" lengthAdjust="spacing" textLength="318" x="93.5" y="448.8247">&#1042;&#1099;&#1074;&#1086;&#1076; &#1080;&#1085;&#1092;&#1086;&#1088;&#1084;&#1072;&#1094;&#1080;&#1080; &#1086;&#1073; &#1091;&#1089;&#1087;&#1077;&#1096;&#1085;&#1086;&#1081; &#1079;&#1072;&#1075;&#1088;&#1091;&#1079;&#1082;&#1072; &#1062;&#1040;&#1056;</text><line style="stroke:#000000;stroke-width:1.0;stroke-dasharray:2.0,2.0;" x1="10" x2="1360" y1="462.8906" y2="462.8906"/><text fill="#000000" font-family="sans-serif" font-size="11" font-weight="bold" lengthAdjust="spacing" textLength="150" x="15" y="473.1011">[&#1053;&#1077;&#1082;&#1086;&#1088;&#1088;&#1077;&#1082;&#1090;&#1085;&#1099;&#1081; &#1092;&#1072;&#1081;&#1083;]</text><polygon fill="#181818" points="812.5,493.8281,802.5,497.8281,812.5,501.8281,808.5,497.8281" style="stroke:#181818;stroke-width:1.0;"/><line style="stroke:#181818;stroke-width:1.0;" x1="806.5" x2="1126.5" y1="497.8281" y2="497.8281"/><text fill="#000000" font-family="sans-serif" font-size="13" lengthAdjust="spacing" textLength="302" x="818.5" y="492.7622">&#1053;&#1077;&#1082;&#1086;&#1088;&#1088;&#1077;&#1082;&#1090;&#1085;&#1099;&#1081; &#1092;&#1086;&#1088;&#1084;&#1072;&#1090; &#1080;&#1083;&#1080; &#1092;&#1072;&#1081;&#1083; &#1087;&#1086;&#1074;&#1088;&#1077;&#1078;&#1076;&#1077;&#1085;</text><polygon fill="#181818" points="442.5,522.9609,432.5,526.9609,442.5,530.9609,438.5,526.9609" style="stroke:#181818;stroke-width:1.0;"/><line style="stroke:#181818;stroke-width:1.0;" x1="436.5" x2="800.5" y1="526.9609" y2="526.9609"/><text fill="#000000" font-family="sans-serif" font-size="13" lengthAdjust="spacing" textLength="346" x="448.5" y="521.895">&#1042;&#1099;&#1074;&#1077;&#1089;&#1090;&#1080; &#1080;&#1085;&#1092;&#1086;&#1088;&#1084;&#1072;&#1094;&#1080;&#1102; &#1086;&#1073; &#1086;&#1096;&#1080;&#1073;&#1082;&#1077; &#1087;&#1088;&#1080; &#1079;&#1072;&#1075;&#1088;&#1091;&#1079;&#1082;&#1072; &#1062;&#1040;&#1056;</text><polygon fill="#181818" points="87.5,552.0938,77.5,556.0938,87.5,560.0938,83.5,556.0938" style="stroke:#181818;stroke-width:1.0;"/><line style="stroke:#181818;stroke-width:1.0;" x1="81.5" x2="430.5" y1="556.0938" y2="556.0938"/><text fill="#000000" font-family="sans-serif" font-size="13" lengthAdjust="spacing" textLength="331" x="93.5" y="551.0278">&#1042;&#1099;&#1074;&#1086;&#1076; &#1080;&#1085;&#1092;&#1086;&#1088;&#1084;&#1072;&#1094;&#1080;&#1080; &#1086;&#1073; &#1086;&#1096;&#1080;&#1073;&#1082;&#1077; &#1087;&#1088;&#1080; &#1079;&#1072;&#1075;&#1088;&#1091;&#1079;&#1082;&#1072; &#1062;&#1040;&#1056;</text><!--SRC=[nPJDJi9058NtVOfv0HFYqeKleCQjEz8W2nA217a0ACQG-4zCNFb3DAxRGgKK2gzmveqyCoqAs1OX9f8GXiwztxbpxvcQXVf9JU0P4upa9GRyTM5B2vxwRrJDMhrKA5NDIbtWJJQu7KehZx5Qg1puqbgCkfDN238Zkl18ShdHpCkMR5AfXTuI1VTvxYG66cdbYgtTz2ft11vWeoSRX0pK4oRW7RTu4N25FCE4cUE89euEzerKbDP9gO4oJrm7bBbGpta4IpRbZS1Kqrn- -qJv21Y9RlPXqaKwn3iasleSkjmDkwBI-WnsTRVxiywuCm46XrmFVz6JfDd73PbgbBk2dWJGv6JFhCLEHgoWno27vk1GOMkKOPPfqLV6JPdOfeoj1ZoOinT33S5Fbcg6nvVCgeI_hQeILyEJHv52tSxbnE5U14sTGOQ7Ejhi7erkmHUwbApMnBAHteQtB9AaTGNlKZXtVS_vtnVSSHOBcT08QOKKowT5WKV20yKXYIkAHVOXtCOGeqsRdi7zUkUeKunKxs8jlY_KaNN61s-bX_2lnlEpN_8wwXUVjRdhi5elUc7v_pQxTMefLeu_0G00]--></g></svg>