<?xml version="1.0" encoding="us-ascii" standalone="no"?><svg xmlns="http://www.w3.org/2000/svg" xmlns:xlink="http://www.w3.org/1999/xlink" contentStyleType="text/css" height="982px" preserveAspectRatio="none" style="width:2025px;height:982px;background:#FFFFFF;" version="1.1" viewBox="0 0 2025 982" width="2025px" zoomAndPan="magnify"><defs/><g><!--cluster ???????--><g id="cluster_&#1052;&#1086;&#1085;&#1086;&#1083;&#1080;&#1090;"><rect fill="none" height="658" rx="2.5" ry="2.5" style="stroke:#181818;stroke-width:1.0;" width="1849.6" x="170" y="318"/><text fill="#000000" font-family="sans-serif" font-size="14" font-weight="bold" lengthAdjust="spacing" textLength="71" x="1059.3" y="332.9951">&#1052;&#1086;&#1085;&#1086;&#1083;&#1080;&#1090;</text></g><!--cluster ?????? ?????????--><g id="cluster_&#1056;&#1077;&#1077;&#1089;&#1090;&#1088; &#1086;&#1073;&#1088;&#1072;&#1097;&#1077;&#1085;&#1080;&#1081;"><rect fill="none" height="445" rx="2.5" ry="2.5" style="stroke:#181818;stroke-width:1.0;" width="1632.84" x="362.76" y="361"/><text fill="#000000" font-family="sans-serif" font-size="14" font-weight="bold" lengthAdjust="spacing" textLength="156" x="1101.18" y="375.9951">&#1056;&#1077;&#1077;&#1089;&#1090;&#1088; &#1086;&#1073;&#1088;&#1072;&#1097;&#1077;&#1085;&#1080;&#1081;</text></g><!--cluster ?????? ?????--><g id="cluster_&#1057;&#1077;&#1088;&#1074;&#1080;&#1089; &#1091;&#1089;&#1083;&#1091;&#1075;"><rect fill="none" height="287" rx="2.5" ry="2.5" style="stroke:#181818;stroke-width:1.0;" width="1065.69" x="315.22" y="7"/><text fill="#000000" font-family="sans-serif" font-size="14" font-weight="bold" lengthAdjust="spacing" textLength="108" x="794.065" y="21.9951">&#1057;&#1077;&#1088;&#1074;&#1080;&#1089; &#1091;&#1089;&#1083;&#1091;&#1075;</text></g><!--cluster ?????????? ?????--><g id="cluster_&#1057;&#1087;&#1088;&#1072;&#1074;&#1086;&#1095;&#1085;&#1080;&#1082; &#1091;&#1089;&#1083;&#1091;&#1075;"><rect fill="none" height="220" rx="2.5" ry="2.5" style="stroke:#181818;stroke-width:1.0;" width="1017.69" x="339.22" y="50"/><text fill="#000000" font-family="sans-serif" font-size="14" font-weight="bold" lengthAdjust="spacing" textLength="148" x="774.065" y="64.9951">&#1057;&#1087;&#1088;&#1072;&#1074;&#1086;&#1095;&#1085;&#1080;&#1082; &#1091;&#1089;&#1083;&#1091;&#1075;</text></g><g id="elem_settingsUsr"><ellipse cx="517.0399" cy="890.998" fill="#F1F1F1" rx="331.0399" ry="68.608" style="stroke:#181818;stroke-width:0.5;"/><text fill="#000000" font-family="sans-serif" font-size="14" lengthAdjust="spacing" textLength="639" x="197.5399" y="893.8447">UC-12: MVP &#1053;&#1072;&#1089;&#1090;&#1088;&#1086;&#1081;&#1082;&#1072; &#1087;&#1088;&#1072;&#1074; &#1087;&#1086;&#1083;&#1100;&#1079;&#1086;&#1074;&#1072;&#1090;&#1077;&#1083;&#1077;&#1081; &#1074; &#1089;&#1087;&#1088;&#1072;&#1074;&#1086;&#1095;&#1085;&#1080;&#1082;&#1077; &#1091;&#1089;&#1083;&#1091;&#1075; &#1080; &#1088;&#1077;&#1077;&#1089;&#1090;&#1088;&#1077; &#1086;&#1073;&#1088;&#1072;&#1097;&#1077;&#1085;&#1080;&#1081;</text></g><g id="elem_createTasks"><ellipse cx="1153.8427" cy="429.9965" fill="#F1F1F1" rx="159.8827" ry="34.3765" style="stroke:#181818;stroke-width:0.5;"/><text fill="#000000" font-family="sans-serif" font-size="14" lengthAdjust="spacing" textLength="291" x="1008.3427" y="432.8432">UC-5: MVP &#1056;&#1091;&#1095;&#1085;&#1086;&#1077; &#1089;&#1086;&#1079;&#1076;&#1072;&#1085;&#1080;&#1077; &#1086;&#1073;&#1088;&#1072;&#1097;&#1077;&#1085;&#1080;&#1081;</text></g><g id="elem_autoCreateTasks"><ellipse cx="1726.7468" cy="436.9974" fill="#F1F1F1" rx="194.3868" ry="41.2774" style="stroke:#181818;stroke-width:0.5;"/><text fill="#000000" font-family="sans-serif" font-size="14" lengthAdjust="spacing" textLength="362" x="1545.7468" y="439.844">UC-6: MVP &#1040;&#1074;&#1090;&#1086;&#1084;&#1072;&#1090;&#1080;&#1095;&#1077;&#1089;&#1082;&#1086;&#1077; &#1089;&#1086;&#1079;&#1076;&#1072;&#1085;&#1080;&#1077; &#1086;&#1073;&#1088;&#1072;&#1097;&#1077;&#1085;&#1080;&#1081;</text></g><g id="elem_doTasks"><ellipse cx="517.0409" cy="606.9962" fill="#F1F1F1" rx="138.2809" ry="30.0562" style="stroke:#181818;stroke-width:0.5;"/><text fill="#000000" font-family="sans-serif" font-size="14" lengthAdjust="spacing" textLength="246" x="394.0409" y="609.8429">UC-7: MVP &#1054;&#1073;&#1088;&#1072;&#1073;&#1086;&#1090;&#1082;&#1072; &#1086;&#1073;&#1088;&#1072;&#1097;&#1077;&#1085;&#1080;&#1081;</text></g><g id="elem_autoChangeStatus"><ellipse cx="1726.7543" cy="574.9989" fill="#F1F1F1" rx="252.8443" ry="52.9689" style="stroke:#181818;stroke-width:0.5;"/><text fill="#000000" font-family="sans-serif" font-size="14" lengthAdjust="spacing" textLength="481" x="1486.2543" y="577.8455">UC-8: MVP &#1040;&#1074;&#1090;&#1086;&#1084;&#1072;&#1090;&#1080;&#1095;&#1077;&#1089;&#1082;&#1086;&#1077; &#1080;&#1079;&#1084;&#1077;&#1085;&#1077;&#1085;&#1080;&#1077; &#1089;&#1090;&#1072;&#1090;&#1091;&#1089;&#1072; &#1085;&#1072; &#1086;&#1089;&#1085;&#1086;&#1074;&#1072;&#1085;&#1080;&#1080; &#1062;&#1040;&#1056;</text></g><g id="elem_createSMEVRequest"><ellipse cx="1153.8443" cy="542.0029" fill="#F1F1F1" rx="199.7643" ry="42.3529" style="stroke:#181818;stroke-width:0.5;"/><text fill="#000000" font-family="sans-serif" font-size="14" lengthAdjust="spacing" textLength="373" x="967.3443" y="544.8495">UC-9: MVP &#1057;&#1086;&#1079;&#1076;&#1072;&#1085;&#1080;&#1077; &#1084;&#1077;&#1078;&#1074;&#1077;&#1076;&#1086;&#1084;&#1089;&#1090;&#1074;&#1077;&#1085;&#1085;&#1099;&#1093; &#1079;&#1072;&#1087;&#1088;&#1086;&#1089;&#1086;&#1074;</text></g><g id="elem_decideTask"><ellipse cx="1153.8378" cy="647.9956" fill="#F1F1F1" rx="129.7278" ry="28.3456" style="stroke:#181818;stroke-width:0.5;"/><text fill="#000000" font-family="sans-serif" font-size="14" lengthAdjust="spacing" textLength="228" x="1039.8378" y="650.8422">UC-10: MVP &#1055;&#1088;&#1080;&#1085;&#1103;&#1090;&#1080;&#1077; &#1088;&#1077;&#1096;&#1077;&#1085;&#1080;&#1103;</text></g><g id="elem_regTask"><ellipse cx="1153.8406" cy="743.0001" fill="#F1F1F1" rx="145.4506" ry="31.4901" style="stroke:#181818;stroke-width:0.5;"/><text fill="#000000" font-family="sans-serif" font-size="14" lengthAdjust="spacing" textLength="261" x="1023.3406" y="745.8468">UC-11: MVP &#1056;&#1077;&#1075;&#1080;&#1089;&#1090;&#1088;&#1072;&#1094;&#1080;&#1103; &#1079;&#1072;&#1103;&#1074;&#1083;&#1077;&#1085;&#1080;&#1103;</text></g><g id="elem_createRezol"><ellipse cx="1726.7509" cy="728.9962" fill="#F1F1F1" rx="138.2809" ry="30.0562" style="stroke:#181818;stroke-width:0.5;"/><text fill="#000000" font-family="sans-serif" font-size="14" lengthAdjust="spacing" textLength="246" x="1603.7509" y="731.8429">UC-13: MVP &#1057;&#1086;&#1079;&#1076;&#1072;&#1085;&#1080;&#1077; &#1088;&#1077;&#1079;&#1086;&#1083;&#1102;&#1094;&#1080;&#1080;</text></g><g id="elem_uploadCarSMEV"><ellipse cx="517.0378" cy="221.9956" fill="#F1F1F1" rx="148.3278" ry="32.0656" style="stroke:#181818;stroke-width:0.5;"/><text fill="#000000" font-family="sans-serif" font-size="14" lengthAdjust="spacing" textLength="267" x="383.5378" y="224.8422">UC-1: MVP &#1047;&#1072;&#1075;&#1088;&#1091;&#1079;&#1082;&#1072; &#1062;&#1040;&#1056; &#1095;&#1077;&#1088;&#1077;&#1079; &#1057;&#1052;&#1069;&#1042;</text></g><g id="elem_uploadCarManual"><ellipse cx="1153.8393" cy="225.9959" fill="#F1F1F1" rx="118.4293" ry="26.0859" style="stroke:#181818;stroke-width:0.5;"/><text fill="#000000" font-family="sans-serif" font-size="14" lengthAdjust="spacing" textLength="204" x="1051.8393" y="228.8425">UC-2: &#1047;&#1072;&#1075;&#1088;&#1091;&#1079;&#1082;&#1072; &#1062;&#1040;&#1056; &#1074;&#1088;&#1091;&#1095;&#1085;&#1091;&#1102;</text></g><g id="elem_viewInfoCar"><ellipse cx="517.0449" cy="120.003" fill="#F1F1F1" rx="161.8149" ry="34.763" style="stroke:#181818;stroke-width:0.5;"/><text fill="#000000" font-family="sans-serif" font-size="14" lengthAdjust="spacing" textLength="295" x="369.5449" y="122.8497">UC-3: MVP &#1055;&#1088;&#1086;&#1089;&#1084;&#1086;&#1090;&#1088; &#1080;&#1085;&#1092;&#1086;&#1088;&#1084;&#1072;&#1094;&#1080;&#1080; &#1086; &#1062;&#1040;&#1056;</text></g><g id="elem_viewInfoSubcar"><ellipse cx="1153.8357" cy="125.0031" fill="#F1F1F1" rx="187.0657" ry="39.8131" style="stroke:#181818;stroke-width:0.5;"/><text fill="#000000" font-family="sans-serif" font-size="14" lengthAdjust="spacing" textLength="347" x="980.3357" y="127.8498">UC-4: MVP &#1055;&#1088;&#1086;&#1089;&#1084;&#1086;&#1090;&#1088; &#1080;&#1085;&#1092;&#1086;&#1088;&#1084;&#1072;&#1094;&#1080;&#1080; &#1086; &#1087;&#1086;&#1076;&#1091;&#1089;&#1083;&#1091;&#1075;&#1072;&#1093;</text></g><!--entity usr--><g id="elem_usr"><ellipse cx="64.5" cy="344.35" fill="#F1F1F1" rx="8" ry="8" style="stroke:#181818;stroke-width:0.5;"/><path d="M64.5,352.35 L64.5,379.35 M51.5,360.35 L77.5,360.35 M64.5,379.35 L51.5,394.35 M64.5,379.35 L77.5,394.35 " fill="none" style="stroke:#181818;stroke-width:0.5;"/><text fill="#000000" font-family="sans-serif" font-size="14" lengthAdjust="spacing" textLength="104" x="12.5" y="408.8451">&#1055;&#1086;&#1083;&#1100;&#1079;&#1086;&#1074;&#1072;&#1090;&#1077;&#1083;&#1100;</text></g><!--entity adm--><g id="elem_adm"><ellipse cx="64.5" cy="861.35" fill="#F1F1F1" rx="8" ry="8" style="stroke:#181818;stroke-width:0.5;"/><path d="M64.5,869.35 L64.5,896.35 M51.5,877.35 L77.5,877.35 M64.5,896.35 L51.5,911.35 M64.5,896.35 L77.5,911.35 " fill="none" style="stroke:#181818;stroke-width:0.5;"/><text fill="#000000" font-family="sans-serif" font-size="14" lengthAdjust="spacing" textLength="117" x="6" y="925.8451">&#1040;&#1076;&#1084;&#1080;&#1085;&#1080;&#1089;&#1090;&#1088;&#1072;&#1090;&#1086;&#1088;</text></g><!--link usr to uploadCarSMEV--><g id="link_usr_uploadCarSMEV"><path d="M116.74,356.71 C194.58,330.45 343.3,280.28 435.64,249.13 " fill="none" id="usr-uploadCarSMEV" style="stroke:#181818;stroke-width:1.0;"/></g><!--reverse link uploadCarSMEV to uploadCarManual--><g id="link_uploadCarSMEV_uploadCarManual"><path d="M671.6699,222.9679 C784.1299,223.6779 930.88,224.6 1035.17,225.26 " fill="none" id="uploadCarSMEV-backto-uploadCarManual" style="stroke:#181818;stroke-width:1.0;stroke-dasharray:7.0,7.0;"/><polygon fill="#181818" points="665.67,222.93,674.6446,226.9867,670.6699,222.9616,674.6951,218.9869,665.67,222.93" style="stroke:#181818;stroke-width:1.0;"/><text fill="#000000" font-family="sans-serif" font-size="13" lengthAdjust="spacing" textLength="44" x="879.08" y="221.0669">extend</text></g><!--link usr to viewInfoCar--><g id="link_usr_viewInfoCar"><path d="M72.57,335.44 C83.28,288.78 108.36,211.56 162,172 C218.12,130.61 293.1,115.52 359.6,111.62 " fill="none" id="usr-viewInfoCar" style="stroke:#181818;stroke-width:1.0;"/></g><!--reverse link viewInfoCar to viewInfoSubcar--><g id="link_viewInfoCar_viewInfoSubcar"><path d="M685.0498,121.3173 C772.6498,122.0073 875.45,122.82 966.69,123.53 " fill="none" id="viewInfoCar-backto-viewInfoSubcar" style="stroke:#181818;stroke-width:1.0;"/><polygon fill="#181818" points="679.05,121.27,688.0182,125.3408,684.0498,121.3094,688.0812,117.341,679.05,121.27" style="stroke:#181818;stroke-width:1.0;"/></g><!--link usr to doTasks--><g id="link_usr_doTasks"><path d="M116.82,401.07 C128.69,407.31 141.28,413.9 153,420 C262.27,476.87 390.45,542.68 461.53,579.1 " fill="none" id="usr-doTasks" style="stroke:#181818;stroke-width:1.0;"/></g><!--reverse link doTasks to createSMEVRequest--><g id="link_doTasks_createSMEVRequest"><path d="M648.6688,593.6288 C742.9088,583.9788 867.67,571.2 973.19,560.4 " fill="none" id="doTasks-backto-createSMEVRequest" style="stroke:#181818;stroke-width:1.0;"/><polygon fill="#181818" points="642.7,594.24,652.0606,597.3024,647.674,593.7307,651.2457,589.344,642.7,594.24" style="stroke:#181818;stroke-width:1.0;"/></g><!--reverse link doTasks to decideTask--><g id="link_doTasks_decideTask"><path d="M655.9475,615.9069 C767.3775,623.1069 919.81,632.95 1028.91,640 " fill="none" id="doTasks-backto-decideTask" style="stroke:#181818;stroke-width:1.0;"/><polygon fill="#181818" points="649.96,615.52,658.6834,620.092,654.9496,615.8424,659.1992,612.1086,649.96,615.52" style="stroke:#181818;stroke-width:1.0;"/></g><!--reverse link createTasks to autoCreateTasks--><g id="link_createTasks_autoCreateTasks"><path d="M1319.8695,432.0235 C1387.5895,432.8535 1461.21,433.76 1532.3,434.63 " fill="none" id="createTasks-backto-autoCreateTasks" style="stroke:#181818;stroke-width:1.0;stroke-dasharray:7.0,7.0;"/><polygon fill="#181818" points="1313.87,431.95,1322.8203,436.06,1318.8696,432.0113,1322.9183,428.0606,1313.87,431.95" style="stroke:#181818;stroke-width:1.0;"/><text fill="#000000" font-family="sans-serif" font-size="13" lengthAdjust="spacing" textLength="44" x="1398.41" y="430.0669">extend</text></g><!--link usr to createTasks--><g id="link_usr_createTasks"><path d="M116.85,376.64 C273.45,384.71 749.38,409.22 997.95,422.02 " fill="none" id="usr-createTasks" style="stroke:#181818;stroke-width:1.0;"/></g><!--reverse link doTasks to regTask--><g id="link_doTasks_regTask"><path d="M661.0257,610.4738 C721.2057,614.6338 786.13,622.98 848.08,641 C898.65,655.72 904.65,675.81 954.08,694 C983.51,704.83 1016.28,714.02 1046.57,721.41 " fill="none" id="doTasks-backto-regTask" style="stroke:#181818;stroke-width:1.0;"/><polygon fill="#181818" points="655.04,610.06,663.7427,614.6711,660.0281,610.4048,664.2944,606.6902,655.04,610.06" style="stroke:#181818;stroke-width:1.0;"/></g><!--reverse link createTasks to autoChangeStatus--><g id="link_createTasks_autoChangeStatus"><path d="M1274.9699,455.4589 C1313.1599,463.8589 1350.03,472.32 1388.91,482 C1450.58,497.35 1518.18,515.71 1576.53,532.05 " fill="none" id="createTasks-backto-autoChangeStatus" style="stroke:#181818;stroke-width:1.0;stroke-dasharray:7.0,7.0;"/><polygon fill="#181818" points="1269.11,454.17,1277.0406,460.01,1273.9933,455.2441,1278.7592,452.1967,1269.11,454.17" style="stroke:#181818;stroke-width:1.0;"/><text fill="#000000" font-family="sans-serif" font-size="13" lengthAdjust="spacing" textLength="45" x="1397.91" y="481.0669">include</text></g><!--reverse link decideTask to autoChangeStatus--><g id="link_decideTask_autoChangeStatus"><path d="M1272.5716,632.9491 C1341.7916,624.0991 1427.05,613.19 1509.92,602.6 " fill="none" id="decideTask-backto-autoChangeStatus" style="stroke:#181818;stroke-width:1.0;stroke-dasharray:7.0,7.0;"/><polygon fill="#181818" points="1266.62,633.71,1276.0546,636.5363,1271.5796,633.0759,1275.04,628.6009,1266.62,633.71" style="stroke:#181818;stroke-width:1.0;"/><text fill="#000000" font-family="sans-serif" font-size="13" lengthAdjust="spacing" textLength="45" x="1397.91" y="608.0669">include</text></g><!--reverse link regTask to createRezol--><g id="link_regTask_createRezol"><path d="M1298.3789,753.365 C1332.5089,755.445 1363.03,756.95 1396.91,758 C1468.23,760.21 1547.96,753.41 1611.04,745.84 " fill="none" id="regTask-backto-createRezol" style="stroke:#181818;stroke-width:1.0;stroke-dasharray:7.0,7.0;"/><polygon fill="#181818" points="1292.39,753,1301.13,757.5401,1297.3807,753.3042,1301.6167,749.5549,1292.39,753" style="stroke:#181818;stroke-width:1.0;"/><text fill="#000000" font-family="sans-serif" font-size="13" lengthAdjust="spacing" textLength="45" x="1397.91" y="754.0669">include</text></g><!--reverse link decideTask to createRezol--><g id="link_decideTask_createRezol"><path d="M1279.1573,660.0552 C1331.5573,665.5452 1387.92,672.04 1443.91,680 C1502.79,688.37 1568.26,699.63 1621.26,709.25 " fill="none" id="decideTask-backto-createRezol" style="stroke:#181818;stroke-width:1.0;stroke-dasharray:7.0,7.0;"/><polygon fill="#181818" points="1273.19,659.43,1281.7242,664.346,1278.1628,659.951,1282.5578,656.3896,1273.19,659.43" style="stroke:#181818;stroke-width:1.0;"/><text fill="#000000" font-family="sans-serif" font-size="13" lengthAdjust="spacing" textLength="45" x="1397.91" y="671.0669">include</text></g><!--reverse link regTask to autoChangeStatus--><g id="link_regTask_autoChangeStatus"><path d="M1304.5455,738.8574 C1352.2655,733.7174 1398.74,724.24 1443.91,705 C1459.62,698.31 1459.23,689.73 1473.91,681 C1512.44,658.08 1556.84,637.64 1597.53,620.97 " fill="none" id="regTask-backto-autoChangeStatus" style="stroke:#181818;stroke-width:1.0;stroke-dasharray:7.0,7.0;"/><polygon fill="#181818" points="1298.58,739.5,1307.9566,742.5132,1303.5512,738.9645,1307.0999,734.5592,1298.58,739.5" style="stroke:#181818;stroke-width:1.0;"/><text fill="#000000" font-family="sans-serif" font-size="13" lengthAdjust="spacing" textLength="45" x="1397.91" y="701.0669">include</text></g><!--reverse link createSMEVRequest to autoChangeStatus--><g id="link_createSMEVRequest_autoChangeStatus"><path d="M1352.9199,553.4472 C1396.3999,555.9672 1437.13,558.32 1482.4,560.93 " fill="none" id="createSMEVRequest-backto-autoChangeStatus" style="stroke:#181818;stroke-width:1.0;stroke-dasharray:7.0,7.0;"/><polygon fill="#181818" points="1346.93,553.1,1355.6835,557.614,1351.9216,553.3893,1356.1464,549.6274,1346.93,553.1" style="stroke:#181818;stroke-width:1.0;"/><text fill="#000000" font-family="sans-serif" font-size="13" lengthAdjust="spacing" textLength="45" x="1397.91" y="553.0669">include</text></g><!--link adm to settingsUsr--><g id="link_adm_settingsUsr"><path d="M123.48,891 C141.42,891 162.61,891 185.69,891 " fill="none" id="adm-settingsUsr" style="stroke:#181818;stroke-width:1.0;"/></g><!--SRC=[bLLBJzj04BxxLuouj3s0IkaJSKCzz81KGU6-jPTWnTZKNlSff10Aj6e5g9TUQ85BRvL2m4qe9FqBk_-eCsidsSHsAP4SnzwPRxvlNl7uiW0HGEXMLWGuRiXjuGQ-5LLTVus5R1NMc5rb5RuWtdWSw9Zv5OzR5hD54CAOF9HTUQ4-onRUcxAXwZAXvp5W4SHHsBVRbsVoKhPbHxRLXgghchRjgfgsPCwgPVNHqVm0uJe4ZURrCNXd0Q9ncqKSRYxEZa_UcOQvfQSWlo5C2jULv_AtR83yGzYoYJ-AgE5r3dYgDdg6I6A7QA5t0ceJ3oxKfZm5sGOqI6II1KW0SKuqyO_ucZpERn7vY0lX-fLe4UK2c2gE1ku5pgai-jmeIsDsRag_boa_GgexEaS9YUcYwndA8UHIfdR8cU3FM5ID2f3lPyZxiacbmN8HZpP6GGsOdUj4Oh48PlyPxK4MxNlgBq-m3lMqWiMGJb06zV0_Y2DC2my8CCceKs78KjSSmtPqRFpTIOkWpTeWVo3mqK3L2bONvu69k8ZBeupByMYUAFOlX4tm9LBKmPkQIqTzKbk0rWtTabsTuwPHi8Mvnqlp_4NC8r4GSV9s5l8GdN70r1w99ttOi-f3AbVjfJdajkleaXG1JVPQ2trEZJdT9dzDKEqXvuiXo91Nol2cIdAXnwgbEtwNm6NR43lFtmOUegrRwqCRuHZ5r30wqZAcD9sXORlSNEVihvgu8HMPYA-8UQfg2D9AkrIt1UWcqtf8vu7yARzeCV6Q5p1dbeLKl1mehgyoGEpXMZhQ-BqxZ3N7_9XvERGfem6eUovfb6ZbK3UyfoMhHs8xRUUksT4lNVxgYRyS87WEzkvrOMdXdWroZMTRGq4MukTsFqu8u-D5MJBVmCp4nAZwQU2l1VST4sPKXV4CCyPvdy0wNjXVcNjlisHtxPAVFFFKc2DZfsgw8vklJpUBPQvW4x4tHeLmnigP1jUtlTZXre335OOPjBOoPgmKgT3612aFbSlQ5VOM_l5JLeo_qBy0]--></g></svg>